<svg width="38" height="38" viewBox="0 0 38 38" fill="none" xmlns="http://www.w3.org/2000/svg">
    <path d="M12.2143 1.35742H5.42858C3.17999 1.35742 1.35715 3.18026 1.35715 5.42885V12.2146C1.35715 14.4632 3.17999 16.286 5.42858 16.286H12.2143C14.4629 16.286 16.2857 14.4632 16.2857 12.2146V5.42885C16.2857 3.18026 14.4629 1.35742 12.2143 1.35742Z" fill="#E84144"/>
    <path d="M32.5714 1.35742H25.7857C23.5371 1.35742 21.7143 3.18026 21.7143 5.42885V12.2146C21.7143 14.4632 23.5371 16.286 25.7857 16.286H32.5714C34.82 16.286 36.6428 14.4632 36.6428 12.2146V5.42885C36.6428 3.18026 34.82 1.35742 32.5714 1.35742Z" fill="#D9534F"/>
    <path d="M12.2143 21.7144H5.42858C3.17999 21.7144 1.35715 23.5372 1.35715 25.7858V32.5715C1.35715 34.8201 3.17999 36.6429 5.42858 36.6429H12.2143C14.4629 36.6429 16.2857 34.8201 16.2857 32.5715V25.7858C16.2857 23.5372 14.4629 21.7144 12.2143 21.7144Z" fill="#E84144"/>
    <path d="M32.5714 21.7144H25.7857C23.5371 21.7144 21.7143 23.5372 21.7143 25.7858V32.5715C21.7143 34.8201 23.5371 36.6429 25.7857 36.6429H32.5714C34.82 36.6429 36.6428 34.8201 36.6428 32.5715V25.7858C36.6428 23.5372 34.82 21.7144 32.5714 21.7144Z" fill="#E84144"/>
    <path d="M12.2143 0H5.42857C3.98882 0 2.60805 0.571937 1.58999 1.58999C0.571937 2.60805 0 3.98882 0 5.42857V12.2143C0 13.654 0.571937 15.0348 1.58999 16.0529C2.60805 17.0709 3.98882 17.6429 5.42857 17.6429H12.2143C13.654 17.6429 15.0348 17.0709 16.0529 16.0529C17.0709 15.0348 17.6429 13.654 17.6429 12.2143V5.42857C17.6429 3.98882 17.0709 2.60805 16.0529 1.58999C15.0348 0.571937 13.654 0 12.2143 0ZM14.9286 12.2143C14.9286 12.9342 14.6426 13.6245 14.1336 14.1336C13.6245 14.6426 12.9342 14.9286 12.2143 14.9286H5.42857C4.7087 14.9286 4.01831 14.6426 3.50928 14.1336C3.00025 13.6245 2.71429 12.9342 2.71429 12.2143V5.42857C2.71429 4.7087 3.00025 4.01831 3.50928 3.50928C4.01831 3.00025 4.7087 2.71429 5.42857 2.71429H12.2143C12.9342 2.71429 13.6245 3.00025 14.1336 3.50928C14.6426 4.01831 14.9286 4.7087 14.9286 5.42857V12.2143ZM32.5714 0H25.7857C24.346 0 22.9652 0.571937 21.9471 1.58999C20.9291 2.60805 20.3571 3.98882 20.3571 5.42857V12.2143C20.3571 13.654 20.9291 15.0348 21.9471 16.0529C22.9652 17.0709 24.346 17.6429 25.7857 17.6429H32.5714C34.0112 17.6429 35.392 17.0709 36.41 16.0529C37.4281 15.0348 38 13.654 38 12.2143V5.42857C38 3.98882 37.4281 2.60805 36.41 1.58999C35.392 0.571937 34.0112 0 32.5714 0ZM35.2857 12.2143C35.2857 12.9342 34.9997 13.6245 34.4907 14.1336C33.9817 14.6426 33.2913 14.9286 32.5714 14.9286H25.7857C25.0658 14.9286 24.3755 14.6426 23.8664 14.1336C23.3574 13.6245 23.0714 12.9342 23.0714 12.2143V5.42857C23.0714 4.7087 23.3574 4.01831 23.8664 3.50928C24.3755 3.00025 25.0658 2.71429 25.7857 2.71429H32.5714C33.2913 2.71429 33.9817 3.00025 34.4907 3.50928C34.9997 4.01831 35.2857 4.7087 35.2857 5.42857V12.2143ZM12.2143 20.3571H5.42857C3.98882 20.3571 2.60805 20.9291 1.58999 21.9471C0.571937 22.9652 0 24.346 0 25.7857V32.5714C0 34.0112 0.571937 35.392 1.58999 36.41C2.60805 37.4281 3.98882 38 5.42857 38H12.2143C13.654 38 15.0348 37.4281 16.0529 36.41C17.0709 35.392 17.6429 34.0112 17.6429 32.5714V25.7857C17.6429 24.346 17.0709 22.9652 16.0529 21.9471C15.0348 20.9291 13.654 20.3571 12.2143 20.3571ZM14.9286 32.5714C14.9286 33.2913 14.6426 33.9817 14.1336 34.4907C13.6245 34.9997 12.9342 35.2857 12.2143 35.2857H5.42857C4.7087 35.2857 4.01831 34.9997 3.50928 34.4907C3.00025 33.9817 2.71429 33.2913 2.71429 32.5714V25.7857C2.71429 25.0658 3.00025 24.3755 3.50928 23.8664C4.01831 23.3574 4.7087 23.0714 5.42857 23.0714H12.2143C12.9342 23.0714 13.6245 23.3574 14.1336 23.8664C14.6426 24.3755 14.9286 25.0658 14.9286 25.7857V32.5714ZM32.5714 20.3571H25.7857C24.346 20.3571 22.9652 20.9291 21.9471 21.9471C20.9291 22.9652 20.3571 24.346 20.3571 25.7857V32.5714C20.3571 34.0112 20.9291 35.392 21.9471 36.41C22.9652 37.4281 24.346 38 25.7857 38H32.5714C34.0112 38 35.392 37.4281 36.41 36.41C37.4281 35.392 38 34.0112 38 32.5714V25.7857C38 24.346 37.4281 22.9652 36.41 21.9471C35.392 20.9291 34.0112 20.3571 32.5714 20.3571ZM35.2857 32.5714C35.2857 33.2913 34.9997 33.9817 34.4907 34.4907C33.9817 34.9997 33.2913 35.2857 32.5714 35.2857H25.7857C25.0658 35.2857 24.3755 34.9997 23.8664 34.4907C23.3574 33.9817 23.0714 33.2913 23.0714 32.5714V25.7857C23.0714 25.0658 23.3574 24.3755 23.8664 23.8664C24.3755 23.3574 25.0658 23.0714 25.7857 23.0714H32.5714C33.2913 23.0714 33.9817 23.3574 34.4907 23.8664C34.9997 24.3755 35.2857 25.0658 35.2857 25.7857V32.5714Z" fill="black"/>
</svg>
