<svg width="45" height="44" viewBox="0 0 45 44" fill="none" xmlns="http://www.w3.org/2000/svg">
    <path fill-rule="evenodd" clip-rule="evenodd" d="M43.5156 26.8515V17.1478C43.5156 16.4363 42.9334 15.854 42.2218 15.854H1.94073C1.22913 15.854 0.646912 16.4362 0.646912 17.1478V26.8515C0.646912 27.5631 1.22922 28.1453 1.94073 28.1453H42.2218C42.9333 28.1453 43.5156 27.5631 43.5156 26.8515Z" fill="#E84144"/>
    <path fill-rule="evenodd" clip-rule="evenodd" d="M36.3423 28.1457H7.82021C10.2013 33.6634 15.6899 37.5259 22.0813 37.5259C28.4727 37.5259 33.9613 33.6634 36.3423 28.1457ZM36.3423 15.8543H7.82021C10.2013 10.3366 15.6899 6.47412 22.0813 6.47412C28.4727 6.47412 33.9613 10.3366 36.3423 15.8543Z" fill="white"/>
    <path fill-rule="evenodd" clip-rule="evenodd" d="M36.3423 28.1456H7.82021C8.10949 28.8154 8.44571 29.464 8.82638 30.0864H35.3362C35.7169 29.464 36.0531 28.8154 36.3423 28.1456ZM8.82638 13.9136H35.3362C35.7169 14.536 36.0531 15.1845 36.3424 15.8543H7.82021C8.10947 15.1845 8.44569 14.536 8.82638 13.9136Z" fill="#9CE4F8"/>
    <path fill-rule="evenodd" clip-rule="evenodd" d="M22.0812 37.5259C15.6898 37.5259 10.2013 33.6634 7.82021 28.1457H3.81341L3.68653 32.6202L8.73434 35.3468L11.4609 40.3946L17.1959 40.232L22.0812 43.2403L26.9666 40.2321L32.7015 40.3947L35.4281 35.3469L40.4759 32.6203L40.349 28.1458H36.3422C33.9613 33.6634 28.4726 37.5259 22.0812 37.5259ZM22.0812 6.47415C15.6898 6.47415 10.2012 10.3366 7.82021 15.8544H3.8135L3.68662 11.3799L8.73443 8.6533L11.461 3.60549L17.1959 3.76808L22.0812 0.759766L26.9666 3.76799L32.7015 3.6054L35.4281 8.65321L40.4759 11.3798L40.349 15.8543H36.3422C33.9613 10.3366 28.4727 6.47415 22.0812 6.47415Z" fill="#E84144"/>
    <path fill-rule="evenodd" clip-rule="evenodd" d="M8.82629 30.0864C8.44559 29.464 8.10936 28.8154 7.82013 28.1456H3.81341L3.75838 30.0864H8.82629ZM40.404 30.0864L40.349 28.1456H36.3422C36.0529 28.8154 35.7167 29.464 35.336 30.0864H40.404ZM3.75847 13.9136H8.82638C8.44568 14.536 8.10945 15.1845 7.82021 15.8543H3.8135L3.75847 13.9136ZM35.3362 13.9136H40.4041L40.3491 15.8543H36.3423C36.0531 15.1845 35.7169 14.536 35.3362 13.9136ZM3.88147 15.8543H1.94073C1.22913 15.8543 0.646912 16.4365 0.646912 17.1481V26.8518C0.646912 27.5634 1.22922 28.1456 1.94073 28.1456H3.88147C3.16995 28.1456 2.58765 27.5634 2.58765 26.8518V17.1481C2.58765 16.4365 3.16987 15.8543 3.88147 15.8543Z" fill="#E84144"/>
    <path d="M21.4343 27.4985H22.7282V28.7924H21.4343V27.4985Z" fill="black"/>
    <path d="M42.2218 15.2074H41.0146L41.1338 11L35.9055 8.17584L33.0813 2.9475L27.1414 3.11579L22.0813 0L17.0212 3.1157L11.0812 2.94742L8.25709 8.17584L3.02867 11L3.14796 15.2074H1.94073C0.870571 15.2074 0 16.078 0 17.1481V26.8518C0 27.9219 0.870571 28.7926 1.94073 28.7926H3.14796L3.02867 33L8.25709 35.8241L11.0813 41.0525L17.0213 40.8841L22.0813 44L27.1412 40.8842L33.0812 41.0526L35.9053 35.8242L41.1337 33.0001L41.0145 28.7927H42.2218C43.2918 28.7927 44.1625 27.922 44.1625 26.8519V17.1481C44.1625 16.078 43.2918 15.2074 42.2218 15.2074ZM4.34457 11.7597L9.21185 9.13051L11.8409 4.26332L17.3707 4.41996L22.0813 1.51947L26.7918 4.42005L32.3214 4.26341L34.9506 9.1306L39.8178 11.7598L39.7202 15.2075H36.7609C34.116 9.49502 28.4011 5.82721 22.0813 5.82721C19.1455 5.82721 16.2701 6.62239 13.7658 8.12685L14.4322 9.23583C16.7352 7.85239 19.3802 7.12103 22.0813 7.12103C27.6925 7.12103 32.7854 10.2639 35.3216 15.2074H8.84078C9.91448 13.1182 11.4735 11.304 13.393 9.92069L12.6364 8.87097C10.3721 10.503 8.57037 12.6877 7.40265 15.2074H4.4423L4.34457 11.7597ZM39.8179 32.2403L34.9507 34.8694L32.3215 39.7367L26.7919 39.58L22.0813 42.4805L17.3707 39.5799L11.8409 39.7366L9.21185 34.8693L4.34457 32.2402L4.4423 28.7925H7.40162C10.0465 34.505 15.7615 38.1728 22.0813 38.1728C28.401 38.1728 34.116 34.505 36.7609 28.7926H39.7202L39.8179 32.2403ZM42.8687 26.8518C42.8687 27.2086 42.5785 27.4987 42.2218 27.4987H24.022V28.7926H35.3217C32.7854 33.7361 27.6924 36.879 22.0813 36.879C16.4701 36.879 11.3771 33.7361 8.84087 28.7926H20.1405V27.4987H1.94073C1.58407 27.4987 1.29382 27.2086 1.29382 26.8518V17.1481C1.29382 16.7914 1.58407 16.5012 1.94073 16.5012H42.2218C42.5785 16.5012 42.8687 16.7914 42.8687 17.1481V26.8518Z" fill="black"/>
    <path d="M25.9626 9.70898H27.2565V11.0028H25.9626V9.70898ZM28.5503 11.0029H29.8441V12.2967H28.5503V11.0029ZM20.9057 18.7394L18.5497 24.9254L19.7588 25.3859L20.3204 23.9116H22.5882L23.1441 25.3847L24.3546 24.9279L22.0186 18.7381L20.9057 18.7394ZM20.813 22.6178L21.4594 20.9207L22.0998 22.6178H20.813ZM30.6123 22.6546L28.1519 18.7388H26.9176V25.2619H28.2114V21.2654L30.6718 25.1811H31.9061V18.7289H30.6123V22.6546ZM36.5118 18.7288H34.425V25.1067H36.5596L36.5652 25.1066C38.0987 25.0798 39.2118 23.7388 39.2118 21.9178C39.2118 20.0104 38.1267 18.7288 36.5118 18.7288ZM36.5476 23.813H35.7188V20.0227H36.5118C37.1916 20.0227 37.918 20.5206 37.918 21.9179C37.918 23.2002 37.2085 23.7985 36.5476 23.813ZM8.67068 21.6037C8.86758 21.3028 8.97224 20.951 8.9718 20.5914C8.9718 19.57 8.14082 18.739 7.1193 18.739H4.95068V25.2718H7.38523C8.51948 25.2718 9.44232 24.3463 9.44232 23.2085C9.44232 22.5602 9.14086 21.981 8.67068 21.6037ZM6.24451 20.0328H7.11939C7.2675 20.033 7.40949 20.0919 7.51422 20.1966C7.61896 20.3013 7.67788 20.4433 7.67806 20.5914C7.67806 20.9002 7.42749 21.1515 7.11948 21.1515H6.24451V20.0328ZM7.38523 23.978H6.24451V22.4453H7.38523C7.80607 22.4453 8.1485 22.7877 8.1485 23.2086C8.1485 23.6329 7.80607 23.978 7.38523 23.978ZM16.0875 20.7475C16.0875 19.64 15.152 18.7391 14.002 18.7391H11.9622L11.9611 25.2718L13.2549 25.272L13.2553 23.1021L15.2054 25.4075L16.1932 24.5718L14.5884 22.6746C15.4536 22.43 16.0875 21.659 16.0875 20.7475ZM13.2557 20.0328H14.0019C14.431 20.0328 14.7936 20.3601 14.7936 20.7475C14.7936 21.1348 14.431 21.4621 13.9984 21.4621L13.2554 21.4661L13.2557 20.0328Z" fill="black"/>
</svg>
