<svg width="18" height="18" viewBox="0 0 18 18" fill="none" xmlns="http://www.w3.org/2000/svg">
  <path d="M6.84615 1H2.53846C2.13059 1.00049 1.73956 1.16273 1.45114 1.45114C1.16273 1.73956 1.00049 2.13059 1 2.53846V6.84615C1.00049 7.25403 1.16273 7.64506 1.45114 7.93347C1.73956 8.22188 2.13059 8.38413 2.53846 8.38461H6.84615C7.25403 8.38413 7.64506 8.22188 7.93347 7.93347C8.22188 7.64506 8.38413 7.25403 8.38462 6.84615V2.53846C8.38413 2.13059 8.22188 1.73956 7.93347 1.45114C7.64506 1.16273 7.25403 1.00049 6.84615 1ZM7.76923 6.84615C7.76923 7.09097 7.67198 7.32576 7.49887 7.49887C7.32576 7.67198 7.09097 7.76923 6.84615 7.76923H2.53846C2.29365 7.76923 2.05886 7.67198 1.88575 7.49887C1.71264 7.32576 1.61538 7.09097 1.61538 6.84615V2.53846C1.61538 2.29365 1.71264 2.05886 1.88575 1.88575C2.05886 1.71264 2.29365 1.61538 2.53846 1.61538H6.84615C7.09097 1.61538 7.32576 1.71264 7.49887 1.88575C7.67198 2.05886 7.76923 2.29365 7.76923 2.53846V6.84615ZM15.4615 1H11.1538C10.746 1.00049 10.3549 1.16273 10.0665 1.45114C9.77812 1.73956 9.61587 2.13059 9.61539 2.53846V6.84615C9.61587 7.25403 9.77812 7.64506 10.0665 7.93347C10.3549 8.22188 10.746 8.38413 11.1538 8.38461H15.4615C15.8694 8.38413 16.2604 8.22188 16.5489 7.93347C16.8373 7.64506 16.9995 7.25403 17 6.84615V2.53846C16.9995 2.13059 16.8373 1.73956 16.5489 1.45114C16.2604 1.16273 15.8694 1.00049 15.4615 1ZM16.3846 6.84615C16.3846 7.09097 16.2874 7.32576 16.1143 7.49887C15.9411 7.67198 15.7064 7.76923 15.4615 7.76923H11.1538C10.909 7.76923 10.6742 7.67198 10.5011 7.49887C10.328 7.32576 10.2308 7.09097 10.2308 6.84615V2.53846C10.2308 2.29365 10.328 2.05886 10.5011 1.88575C10.6742 1.71264 10.909 1.61538 11.1538 1.61538H15.4615C15.7064 1.61538 15.9411 1.71264 16.1143 1.88575C16.2874 2.05886 16.3846 2.29365 16.3846 2.53846V6.84615ZM6.84615 9.61538H2.53846C2.13059 9.61587 1.73956 9.77812 1.45114 10.0665C1.16273 10.3549 1.00049 10.746 1 11.1538V15.4615C1.00049 15.8694 1.16273 16.2604 1.45114 16.5489C1.73956 16.8373 2.13059 16.9995 2.53846 17H6.84615C7.25403 16.9995 7.64506 16.8373 7.93347 16.5489C8.22188 16.2604 8.38413 15.8694 8.38462 15.4615V11.1538C8.38413 10.746 8.22188 10.3549 7.93347 10.0665C7.64506 9.77812 7.25403 9.61587 6.84615 9.61538ZM7.76923 15.4615C7.76923 15.7064 7.67198 15.9411 7.49887 16.1143C7.32576 16.2874 7.09097 16.3846 6.84615 16.3846H2.53846C2.29365 16.3846 2.05886 16.2874 1.88575 16.1143C1.71264 15.9411 1.61538 15.7064 1.61538 15.4615V11.1538C1.61538 10.909 1.71264 10.6742 1.88575 10.5011C2.05886 10.328 2.29365 10.2308 2.53846 10.2308H6.84615C7.09097 10.2308 7.32576 10.328 7.49887 10.5011C7.67198 10.6742 7.76923 10.909 7.76923 11.1538V15.4615ZM13.3077 9.61538C12.5774 9.61538 11.8636 9.83193 11.2564 10.2376C10.6492 10.6434 10.1759 11.22 9.89645 11.8947C9.61698 12.5694 9.54386 13.3118 9.68633 14.028C9.8288 14.7443 10.1805 15.4022 10.6968 15.9185C11.2132 16.4349 11.8711 16.7866 12.5874 16.9291C13.3036 17.0715 14.046 16.9984 14.7207 16.7189C15.3954 16.4395 15.972 15.9662 16.3777 15.359C16.7835 14.7518 17 14.038 17 13.3077C16.9989 12.3288 16.6096 11.3902 15.9174 10.698C15.2252 10.0058 14.2866 9.61644 13.3077 9.61538ZM13.3077 16.3846C12.6991 16.3846 12.1042 16.2042 11.5982 15.8661C11.0922 15.528 10.6979 15.0474 10.465 14.4852C10.2321 13.9229 10.1712 13.3043 10.2899 12.7074C10.4086 12.1105 10.7017 11.5623 11.132 11.132C11.5623 10.7017 12.1105 10.4086 12.7074 10.2899C13.3043 10.1712 13.9229 10.2321 14.4852 10.465C15.0474 10.6979 15.528 11.0922 15.8661 11.5982C16.2042 12.1042 16.3846 12.6991 16.3846 13.3077C16.3837 14.1235 16.0593 14.9056 15.4824 15.4824C14.9056 16.0593 14.1235 16.3837 13.3077 16.3846Z" fill="#1E1E1E" stroke="#1E1E1E" stroke-width="0.3"/>
</svg>
