<svg width="64" height="64" viewBox="0 0 64 64" fill="none" xmlns="http://www.w3.org/2000/svg">
    <path d="M32 1.10345C49.0637 1.10345 62.8966 14.9363 62.8966 32C62.8966 49.0636 49.0637 62.8965 32 62.8965C14.9364 62.8965 1.10352 49.0636 1.10352 32C1.10352 14.9363 14.9364 1.10345 32 1.10345Z" fill="#E32728"/>
    <path d="M39.9715 47.8255L37.14 30.8368C36.9373 29.6201 36.3095 28.5147 35.3684 27.7174C34.4272 26.9201 33.2337 26.4825 32.0002 26.4826C30.7667 26.4825 29.5732 26.9201 28.632 27.7174C27.6908 28.5147 27.063 29.6201 26.8603 30.8368L24.0289 47.8255C23.9234 48.4578 23.957 49.1056 24.1272 49.7237C24.2975 50.3418 24.6004 50.9154 25.0148 51.4045C25.4292 51.8937 25.9452 52.2867 26.5268 52.5563C27.1085 52.8258 27.742 52.9654 28.3831 52.9653H35.6173C36.2584 52.9654 36.8918 52.8258 37.4735 52.5563C38.0552 52.2867 38.5712 51.8937 38.9856 51.4045C39.4 50.9154 39.7029 50.3418 39.8731 49.7237C40.0434 49.1056 40.0769 48.4578 39.9715 47.8255Z" fill="#C3E7F4"/>
    <path d="M31.9997 11.0347C34.4374 11.0347 36.4135 13.0108 36.4135 15.4485C36.4135 17.8862 34.4374 19.8623 31.9997 19.8623C29.5621 19.8623 27.5859 17.8862 27.5859 15.4485C27.5859 13.0108 29.5621 11.0347 31.9997 11.0347Z" fill="#C3E7F4"/>
    <path d="M43.0364 6.81471C42.7845 6.81441 42.5401 6.90029 42.3438 7.05808C42.1475 7.21587 42.0111 7.43609 41.9572 7.68213C41.9033 7.92818 41.9352 8.18526 42.0476 8.41066C42.1601 8.63606 42.3462 8.81621 42.5752 8.92119C45.8377 10.4176 48.7461 12.5882 51.1089 15.2901C53.4717 17.992 55.2352 21.1639 56.2833 24.5968C56.3255 24.7354 56.3945 24.8644 56.4866 24.9764C56.5786 25.0884 56.6918 25.1812 56.8196 25.2494C56.9475 25.3177 57.0876 25.36 57.2318 25.3742C57.3761 25.3883 57.5217 25.3738 57.6604 25.3317C57.7991 25.2895 57.9281 25.2204 58.0401 25.1284C58.1521 25.0364 58.2448 24.9232 58.3131 24.7953C58.3813 24.6674 58.4237 24.5274 58.4378 24.3831C58.4519 24.2388 58.4375 24.0932 58.3953 23.9546C57.2558 20.2232 55.3389 16.7756 52.7708 13.8386C50.2026 10.9017 47.0415 8.54207 43.4955 6.91512C43.3514 6.84908 43.1949 6.81483 43.0364 6.81471Z" fill="#AA1D1E"/>
    <path d="M6.61877 38.4684C6.51182 38.4687 6.40549 38.4847 6.30319 38.5159C6.02286 38.5996 5.78727 38.7913 5.64822 39.0487C5.50917 39.3061 5.47804 39.6082 5.56167 39.8886C7.42181 46.0732 11.3836 51.4139 16.7628 54.9881C16.8835 55.0684 17.0188 55.1241 17.161 55.1521C17.3033 55.1801 17.4496 55.1798 17.5918 55.1512C17.7339 55.1226 17.869 55.0663 17.9893 54.9855C18.1097 54.9047 18.213 54.801 18.2932 54.6803C18.3735 54.5596 18.4292 54.4242 18.4572 54.282C18.4852 54.1397 18.4849 53.9934 18.4563 53.8513C18.4277 53.7092 18.3714 53.5741 18.2906 53.4537C18.2098 53.3333 18.1061 53.2301 17.9854 53.1498C13.035 49.8618 9.38854 44.948 7.67587 39.2574C7.60814 39.0296 7.46866 38.8297 7.27819 38.6876C7.08772 38.5454 6.85644 38.4685 6.61877 38.4684Z" fill="#EE7D7E"/>
    <path d="M20.9648 55.1725C21.5742 55.1725 22.0682 55.6665 22.0682 56.2759C22.0682 56.8854 21.5742 57.3794 20.9648 57.3794C20.3554 57.3794 19.8613 56.8854 19.8613 56.2759C19.8613 55.6665 20.3554 55.1725 20.9648 55.1725Z" fill="#EE7D7E"/>
    <path d="M32 6.48499e-05C25.671 6.48499e-05 19.4841 1.87683 14.2218 5.39303C8.95938 8.90923 4.85787 13.9069 2.43587 19.7542C0.0138652 25.6014 -0.619841 32.0355 0.614885 38.2429C1.84961 44.4503 4.89731 50.1521 9.37259 54.6274C13.8479 59.1027 19.5497 62.1504 25.7571 63.3851C31.9645 64.6198 38.3986 63.9861 44.2458 61.5641C50.0931 59.1421 55.0908 55.0406 58.607 49.7782C62.1232 44.5159 63.9999 38.329 63.9999 32C63.9903 23.5161 60.6158 15.3824 54.6167 9.38328C48.6176 3.38421 40.4839 0.00970078 32 6.48499e-05ZM32 61.7931C26.1075 61.7931 20.3473 60.0458 15.4478 56.7721C10.5484 53.4984 6.72974 48.8453 4.47477 43.4013C2.2198 37.9574 1.6298 31.967 2.77937 26.1877C3.92895 20.4084 6.76646 15.0998 10.9331 10.9331C15.0997 6.76651 20.4083 3.929 26.1876 2.77942C31.9669 1.62985 37.9573 2.21985 43.4013 4.47482C48.8453 6.72979 53.4983 10.5484 56.772 15.4479C60.0457 20.3473 61.793 26.1075 61.793 32C61.7843 39.8989 58.6426 47.4718 53.0572 53.0572C47.4718 58.6426 39.8989 61.7843 32 61.7931Z" fill="black"/>
    <path d="M31.9996 25.3792C30.5039 25.375 29.0557 25.9037 27.9144 26.8704C26.7732 27.8372 26.0135 29.1788 25.7717 30.6548L22.9403 47.6446C22.8086 48.435 22.8506 49.2446 23.0634 50.0171C23.2762 50.7896 23.6548 51.5064 24.1727 52.1178C24.6907 52.7292 25.3355 53.2205 26.0625 53.5574C26.7895 53.8943 27.5812 54.0689 28.3825 54.0688H35.6167C36.418 54.0689 37.2097 53.8943 37.9367 53.5574C38.6637 53.2205 39.3086 52.7292 39.8265 52.1178C40.3444 51.5064 40.723 50.7896 40.9358 50.0171C41.1486 49.2446 41.1906 48.435 41.0589 47.6446L38.2275 30.6537C37.9854 29.1779 37.2257 27.8365 36.0845 26.87C34.9433 25.9035 33.4951 25.375 31.9996 25.3792ZM28.3825 51.862C27.9017 51.8621 27.4266 51.7575 26.9903 51.5554C26.554 51.3533 26.167 51.0586 25.8561 50.6917C25.5453 50.3249 25.3181 49.8948 25.1903 49.4312C25.0625 48.9677 25.0373 48.4819 25.1163 48.0076L27.95 31.0178C28.1089 30.0582 28.6033 29.1862 29.3451 28.5571C30.087 27.9281 31.028 27.5828 32.0007 27.5828C32.9734 27.5828 33.9144 27.9281 34.6563 28.5571C35.3981 29.1862 35.8925 30.0582 36.0515 31.0178L38.8829 48.0076C38.9619 48.4819 38.9367 48.9677 38.8089 49.4312C38.6811 49.8948 38.4539 50.3249 38.1431 50.6917C37.8322 51.0586 37.4452 51.3533 37.0089 51.5554C36.5726 51.7575 36.0975 51.8621 35.6167 51.862H28.3825ZM31.9996 9.93097C30.9084 9.93097 29.8417 10.2545 28.9344 10.8608C28.0271 11.467 27.3199 12.3287 26.9023 13.3368C26.4848 14.345 26.3755 15.4543 26.5884 16.5246C26.8013 17.5948 27.3267 18.5779 28.0983 19.3495C28.8699 20.1211 29.853 20.6465 30.9232 20.8594C31.9935 21.0723 33.1028 20.9631 34.111 20.5455C35.1191 20.1279 35.9808 19.4207 36.587 18.5134C37.1933 17.6061 37.5168 16.5394 37.5168 15.4482C37.5151 13.9855 36.9332 12.5832 35.8989 11.5489C34.8646 10.5146 33.4623 9.93272 31.9996 9.93097ZM31.9996 18.7585C31.3449 18.7585 30.7049 18.5644 30.1605 18.2006C29.6161 17.8369 29.1918 17.3199 28.9412 16.715C28.6907 16.1101 28.6251 15.4445 28.7529 14.8024C28.8806 14.1602 29.1959 13.5704 29.6588 13.1074C30.1218 12.6445 30.7116 12.3292 31.3538 12.2015C31.9959 12.0737 32.6615 12.1393 33.2664 12.3899C33.8713 12.6404 34.3883 13.0647 34.752 13.6091C35.1158 14.1535 35.3099 14.7935 35.3099 15.4482C35.3091 16.3259 34.96 17.1674 34.3394 17.788C33.7188 18.4086 32.8773 18.7577 31.9996 18.7585Z" fill="black"/>
</svg>
