<svg width="17" height="15" viewBox="0 0 17 15" fill="none" xmlns="http://www.w3.org/2000/svg">
    <path d="M0.503906 5.00293L0.50293 4.99414C0.459895 3.84887 0.870516 2.73362 1.64355 1.8916C2.41355 1.05293 3.48086 0.552959 4.61426 0.5C5.31741 0.513845 6.00489 0.71259 6.6084 1.07617C7.21664 1.44266 7.71873 1.96416 8.0625 2.58789L8.5 3.38184L8.9375 2.58789C9.28127 1.96416 9.78336 1.44266 10.3916 1.07617C10.9948 0.712758 11.6819 0.514009 12.3848 0.5C13.5185 0.552718 14.5862 1.05269 15.3564 1.8916C16.1295 2.73362 16.5401 3.84886 16.4971 4.99414L16.4961 5.00293V5.0127C16.4961 6.46532 15.7287 8.0481 14.5488 9.60449C13.3778 11.1492 11.8504 12.6029 10.4434 13.7881V13.7891C9.89884 14.2485 9.21057 14.5 8.5 14.5C7.78943 14.5 7.10116 14.2485 6.55664 13.7891V13.7881L6.02441 13.332C4.77346 12.2385 3.47591 10.9562 2.45117 9.60449C1.2713 8.0481 0.503906 6.46532 0.503906 5.0127V5.00293Z" fill="#E84144" stroke="#1E1E1E"/>
</svg>
