<svg width="26" height="25" viewBox="0 0 26 25" fill="none" xmlns="http://www.w3.org/2000/svg">
    <path d="M8.125 8.22473C8.52946 8.22473 8.91713 8.386 9.20312 8.672C9.48912 8.95799 9.65039 9.34567 9.65039 9.75012C9.65039 10.1546 9.48912 10.5423 9.20312 10.8282C8.91713 11.1142 8.52946 11.2755 8.125 11.2755C7.72054 11.2755 7.33287 11.1142 7.04688 10.8282C6.76088 10.5423 6.59961 10.1546 6.59961 9.75012L6.60742 9.59973C6.64202 9.2505 6.79655 8.92232 7.04688 8.672C7.33287 8.386 7.72054 8.22473 8.125 8.22473ZM13 8.22473C13.4045 8.22473 13.7921 8.386 14.0781 8.672C14.3641 8.95799 14.5254 9.34567 14.5254 9.75012C14.5254 10.1546 14.3641 10.5423 14.0781 10.8282C13.7921 11.1142 13.4045 11.2755 13 11.2755C12.5955 11.2755 12.2079 11.1142 11.9219 10.8282C11.6359 10.5423 11.4746 10.1546 11.4746 9.75012C11.4746 9.34567 11.6359 8.95799 11.9219 8.672C12.2079 8.386 12.5955 8.22473 13 8.22473ZM17.875 8.22473C18.2795 8.22473 18.6671 8.386 18.9531 8.672C19.2391 8.95799 19.4004 9.34567 19.4004 9.75012C19.4004 10.1546 19.2391 10.5423 18.9531 10.8282C18.6671 11.1142 18.2795 11.2755 17.875 11.2755C17.4705 11.2755 17.0829 11.1142 16.7969 10.8282C16.5109 10.5423 16.3496 10.1546 16.3496 9.75012C16.3496 9.34567 16.5109 8.95799 16.7969 8.672C17.0829 8.386 17.4705 8.22473 17.875 8.22473Z" fill="#E84144" stroke="#F6F6F6" stroke-width="0.2"/>
    <path d="M4.0625 0.0996094H21.9375C22.4579 0.0996094 22.9734 0.202233 23.4541 0.401367C23.9348 0.600501 24.3713 0.892814 24.7393 1.26074C25.1072 1.62867 25.3995 2.06518 25.5986 2.5459C25.7978 3.02665 25.9004 3.54214 25.9004 4.0625V15.4375C25.9004 16.4884 25.4824 17.4961 24.7393 18.2393C23.9961 18.9824 22.9884 19.4004 21.9375 19.4004H9.57422L9.54395 19.4316L5.40918 23.79C5.31121 23.8931 5.1848 23.9646 5.0459 23.9951C4.90684 24.0256 4.76117 24.0136 4.62891 23.9609C4.49695 23.9083 4.38361 23.8177 4.30371 23.7002C4.22372 23.5825 4.18093 23.4431 4.18066 23.3008L4.17188 19.5V19.4004H4.0625C3.01158 19.4004 2.00385 18.9824 1.26074 18.2393C0.51763 17.4961 0.0996096 16.4884 0.0996094 15.4375V4.0625C0.0996094 3.01158 0.517629 2.00386 1.26074 1.26074C2.00386 0.517629 3.01158 0.0996094 4.0625 0.0996094ZM4.0625 1.52539C3.38951 1.52539 2.74443 1.79268 2.26855 2.26855C1.79268 2.74443 1.52539 3.38951 1.52539 4.0625V15.4375C1.52539 16.1105 1.79268 16.7556 2.26855 17.2314C2.74443 17.7073 3.38951 17.9746 4.0625 17.9746H4.88281C5.07153 17.9746 5.25314 18.0503 5.38672 18.1836C5.52008 18.3169 5.59533 18.498 5.5957 18.6865L5.60059 21.2666V21.5166L5.77344 21.335L8.75 18.1973C8.81647 18.1272 8.89662 18.0714 8.98535 18.0332C9.07429 17.995 9.17078 17.9746 9.26758 17.9746H21.9375C22.6105 17.9746 23.2556 17.7073 23.7314 17.2314C24.2073 16.7556 24.4746 16.1105 24.4746 15.4375V4.0625C24.4746 3.38951 24.2073 2.74443 23.7314 2.26855C23.2556 1.79268 22.6105 1.52539 21.9375 1.52539H4.0625Z" fill="#E84144" stroke="#F6F6F6" stroke-width="0.2"/>
</svg>
