<svg width="49" height="47" viewBox="0 0 49 47" fill="none" xmlns="http://www.w3.org/2000/svg">
    <path d="M2.12735 10.8444L39.4716 0.831015C39.7602 0.753646 40.0611 0.733882 40.3573 0.772852C40.6534 0.811822 40.939 0.908764 41.1977 1.05814C41.4564 1.20751 41.6831 1.40639 41.865 1.64341C42.0468 1.88043 42.1801 2.15095 42.2573 2.43952L47.7544 22.9423C47.8318 23.2307 47.8516 23.5316 47.8127 23.8278C47.7738 24.1239 47.6769 24.4095 47.5276 24.6681C47.3783 24.9268 47.1795 25.1536 46.9426 25.3354C46.7056 25.5173 46.4352 25.6507 46.1467 25.728L10.9991 35.1516C10.7107 35.229 10.4098 35.2488 10.1136 35.2098C9.8175 35.1709 9.53194 35.074 9.27325 34.9247C9.01457 34.7755 8.78783 34.5767 8.60598 34.3397C8.42414 34.1028 8.29075 33.8323 8.21343 33.5438L2.12659 10.8444H2.12735Z" fill="#B4F56E"/>
    <path d="M6.3783 12.0637L40.0614 3.03126C40.3499 2.95388 40.6508 2.93408 40.9469 2.973C41.243 3.01193 41.5286 3.1088 41.7873 3.2581C42.0459 3.4074 42.2727 3.60619 42.4545 3.84313C42.6364 4.08007 42.7698 4.35051 42.8471 4.63901L47.7552 22.945C47.8326 23.2335 47.8524 23.5344 47.8135 23.8305C47.7745 24.1267 47.6777 24.4122 47.5284 24.6709C47.3791 24.9296 47.1803 25.1563 46.9433 25.3382C46.7064 25.52 46.436 25.6534 46.1475 25.7307L13.1966 34.5654C12.9082 34.6428 12.6073 34.6626 12.3113 34.6237C12.0152 34.5849 11.7296 34.488 11.471 34.3388C11.2123 34.1896 10.9855 33.9909 10.8036 33.754C10.6218 33.5172 10.4883 33.2468 10.4109 32.9584L5.30646 13.9194C5.25488 13.727 5.24168 13.5264 5.26763 13.329C5.29357 13.1316 5.35816 12.9412 5.45769 12.7688C5.55722 12.5963 5.68975 12.4452 5.84771 12.3239C6.00567 12.2027 6.18596 12.1138 6.3783 12.0622V12.0637Z" fill="#8CEB50"/>
    <path d="M10.99 11.8557L46.1376 21.2794C46.426 21.3568 46.6964 21.4902 46.9333 21.6721C47.1701 21.854 47.3688 22.0807 47.518 22.3394C47.6673 22.5981 47.7641 22.8836 47.803 23.1797C47.8418 23.4758 47.822 23.7766 47.7446 24.0651L42.2482 44.5678C42.1709 44.8563 42.0375 45.1268 41.8557 45.3637C41.6739 45.6006 41.4471 45.7994 41.1884 45.9487C40.9297 46.098 40.6442 46.1949 40.348 46.2338C40.0519 46.2727 39.751 46.2529 39.4625 46.1756L2.11826 36.163L8.20434 13.4635C8.28174 13.1751 8.41519 12.9047 8.59707 12.6679C8.77895 12.431 9.0057 12.2323 9.26438 12.0831C9.52305 11.9338 9.80859 11.837 10.1047 11.7982C10.4008 11.7593 10.7016 11.7784 10.99 11.8557Z" fill="#E84144"/>
    <path d="M39.4853 10.6157H3.10064C1.84472 10.6157 0.826599 11.6338 0.826599 12.8898V34.1141C0.826599 35.3701 1.84472 36.3882 3.10064 36.3882H39.4853C40.7412 36.3882 41.7593 35.3701 41.7593 34.1141V12.8898C41.7593 11.6338 40.7412 10.6157 39.4853 10.6157Z" fill="#FAFFFA"/>
    <path d="M4.61664 12.8896H39.4853C40.0884 12.8896 40.6668 13.1292 41.0933 13.5557C41.5197 13.9822 41.7593 14.5606 41.7593 15.1637V34.114C41.7593 34.7171 41.5197 35.2955 41.0933 35.722C40.6668 36.1485 40.0884 36.3881 39.4853 36.3881H5.37466C4.77154 36.3881 4.19313 36.1485 3.76667 35.722C3.3402 35.2955 3.10062 34.7171 3.10062 34.114V14.4057C3.10062 14.0036 3.26034 13.618 3.54465 13.3337C3.82896 13.0494 4.21457 12.8896 4.61664 12.8896Z" fill="#EDF3ED"/>
    <path d="M6.13269 21.9858H21.293V32.598H6.13269V21.9858Z" fill="#E84144"/>
    <path d="M7.64871 21.9858H21.293V32.598H7.64871V21.9858Z" fill="#E84144"/>
    <path d="M4.61667 18.1963H22.809V21.9864H4.61667V18.1963Z" fill="#E84144"/>
    <path d="M6.13269 19.7119H22.809V21.986H6.13269V19.7119Z" fill="#E84144"/>
    <path d="M12.1968 18.1963H15.2289V32.5985H12.1968V18.1963Z" fill="#8CEB50"/>
    <path d="M16.8715 14.4058C17.3741 14.4058 17.8561 14.6054 18.2115 14.9608C18.5668 15.3162 18.7665 15.7982 18.7665 16.3008C18.7665 16.8034 18.5668 17.2854 18.2115 17.6408C17.8561 17.9962 17.3741 18.1958 16.8715 18.1958H13.7128V17.5644C13.7128 17.1496 13.7945 16.7389 13.9533 16.3556C14.112 15.9724 14.3447 15.6242 14.638 15.3309C14.9313 15.0376 15.2795 14.8049 15.6627 14.6462C16.0459 14.4875 16.4567 14.4058 16.8715 14.4058ZM13.7128 18.1958H10.5542C10.0516 18.1958 9.56958 17.9962 9.21419 17.6408C8.8588 17.2854 8.65915 16.8034 8.65915 16.3008C8.65915 15.7982 8.8588 15.3162 9.21419 14.9608C9.56958 14.6054 10.0516 14.4058 10.5542 14.4058C10.969 14.4058 11.3797 14.4875 11.7629 14.6462C12.1462 14.8049 12.4944 15.0376 12.7877 15.3309C13.081 15.6242 13.3137 15.9724 13.4724 16.3556C13.6311 16.7389 13.7128 17.1496 13.7128 17.5644V18.1958Z" fill="#B4F56E"/>
    <path d="M48.3851 22.4097L42.9843 2.25181C42.8813 1.86707 42.7035 1.50641 42.461 1.19041C42.2186 0.874404 41.9163 0.60926 41.5714 0.410121C41.2265 0.210981 40.8457 0.0817483 40.4508 0.0298041C40.0559 -0.0221401 39.6547 0.00422229 39.27 0.107385L4.12546 9.52494C3.85858 9.60018 3.60346 9.71217 3.36745 9.85771H3.10063C2.29648 9.85771 1.52526 10.1772 0.956641 10.7458C0.388021 11.3144 0.068573 12.0856 0.068573 12.8898L0.068573 34.1141C0.068573 34.9183 0.388021 35.6895 0.956641 36.2581C1.52526 36.8267 2.29648 37.1462 3.10063 37.1462H3.36821C3.60418 37.2918 3.85931 37.4038 4.12622 37.479L39.2707 46.8965C39.6554 46.9997 40.0567 47.026 40.4516 46.9741C40.8464 46.9222 41.2272 46.7929 41.5721 46.5938C41.9171 46.3946 42.2194 46.1295 42.4618 45.8135C42.7042 45.4975 42.882 45.1368 42.985 44.7521L48.4783 24.2509C48.5485 23.9873 48.5832 23.7156 48.5814 23.4428C48.5776 23.0895 48.5111 22.7397 48.3851 22.4097ZM39.6634 1.57187C40.0517 1.46791 40.4654 1.52242 40.8135 1.72342C41.1616 1.92441 41.4157 2.25544 41.5198 2.6437L46.3127 20.5328L42.5173 19.5148V12.8898C42.5173 12.0856 42.1979 11.3144 41.6293 10.7458C41.0606 10.1772 40.2894 9.85771 39.4853 9.85771H8.74025L39.6634 1.57187ZM3.10063 35.6302C2.69855 35.6302 2.31294 35.4704 2.02863 35.1861C1.74432 34.9018 1.5846 34.5162 1.5846 34.1141V12.8898C1.5846 12.4877 1.74432 12.1021 2.02863 11.8178C2.31294 11.5335 2.69855 11.3737 3.10063 11.3737H39.4853C39.8873 11.3737 40.273 11.5335 40.5573 11.8178C40.8416 12.1021 41.0013 12.4877 41.0013 12.8898V34.1141C41.0013 34.5162 40.8416 34.9018 40.5573 35.1861C40.273 35.4704 39.8873 35.6302 39.4853 35.6302H3.10063ZM47.0131 23.8582L41.5198 44.3602C41.4157 44.7485 41.1616 45.0795 40.8135 45.2805C40.4654 45.4815 40.0517 45.536 39.6634 45.432L8.741 37.1462H39.4853C40.2894 37.1462 41.0606 36.8267 41.6293 36.2581C42.1979 35.6895 42.5173 34.9183 42.5173 34.1141V21.0847L45.9413 22.0018C46.3295 22.1059 46.6606 22.36 46.8615 22.7081C47.0625 23.0562 47.1171 23.4699 47.0131 23.8582Z" fill="black"/>
    <path d="M37.9692 15.1635H26.599C26.398 15.1635 26.2052 15.2433 26.063 15.3855C25.9209 15.5277 25.841 15.7205 25.841 15.9215C25.841 16.1225 25.9209 16.3153 26.063 16.4575C26.2052 16.5997 26.398 16.6795 26.599 16.6795H37.9692C38.1703 16.6795 38.3631 16.5997 38.5052 16.4575C38.6474 16.3153 38.7273 16.1225 38.7273 15.9215C38.7273 15.7205 38.6474 15.5277 38.5052 15.3855C38.3631 15.2433 38.1703 15.1635 37.9692 15.1635ZM37.9692 18.9536H26.599C26.398 18.9536 26.2052 19.0334 26.063 19.1756C25.9209 19.3177 25.841 19.5105 25.841 19.7116C25.841 19.9126 25.9209 20.1054 26.063 20.2476C26.2052 20.3897 26.398 20.4696 26.599 20.4696H37.9692C38.1703 20.4696 38.3631 20.3897 38.5052 20.2476C38.6474 20.1054 38.7273 19.9126 38.7273 19.7116C38.7273 19.5105 38.6474 19.3177 38.5052 19.1756C38.3631 19.0334 38.1703 18.9536 37.9692 18.9536ZM37.9692 22.7436H26.599C26.398 22.7436 26.2052 22.8235 26.063 22.9656C25.9209 23.1078 25.841 23.3006 25.841 23.5016C25.841 23.7027 25.9209 23.8955 26.063 24.0376C26.2052 24.1798 26.398 24.2596 26.599 24.2596H37.9692C38.1703 24.2596 38.3631 24.1798 38.5052 24.0376C38.6474 23.8955 38.7273 23.7027 38.7273 23.5016C38.7273 23.3006 38.6474 23.1078 38.5052 22.9656C38.3631 22.8235 38.1703 22.7436 37.9692 22.7436ZM37.9692 26.5337H26.599C26.398 26.5337 26.2052 26.6136 26.063 26.7557C25.9209 26.8979 25.841 27.0907 25.841 27.2917C25.841 27.4927 25.9209 27.6855 26.063 27.8277C26.2052 27.9699 26.398 28.0497 26.599 28.0497H37.9692C38.1703 28.0497 38.3631 27.9699 38.5052 27.8277C38.6474 27.6855 38.7273 27.4927 38.7273 27.2917C38.7273 27.0907 38.6474 26.8979 38.5052 26.7557C38.3631 26.6136 38.1703 26.5337 37.9692 26.5337ZM37.9692 30.3238H26.599C26.398 30.3238 26.2052 30.4036 26.063 30.5458C25.9209 30.6879 25.841 30.8807 25.841 31.0818C25.841 31.2828 25.9209 31.4756 26.063 31.6178C26.2052 31.7599 26.398 31.8398 26.599 31.8398H37.9692C38.1703 31.8398 38.3631 31.7599 38.5052 31.6178C38.6474 31.4756 38.7273 31.2828 38.7273 31.0818C38.7273 30.8807 38.6474 30.6879 38.5052 30.5458C38.3631 30.4036 38.1703 30.3238 37.9692 30.3238ZM22.809 17.4375H19.2577C19.4312 17.0835 19.5224 16.6948 19.5245 16.3005C19.5245 15.5969 19.245 14.9221 18.7474 14.4245C18.2499 13.927 17.5751 13.6475 16.8715 13.6475C16.2543 13.6489 15.6462 13.7965 15.0972 14.0784C14.5481 14.3602 14.0737 14.7682 13.7128 15.2689C13.3519 14.7682 12.8775 14.3602 12.3285 14.0784C11.7794 13.7965 11.1713 13.6489 10.5542 13.6475C9.85054 13.6475 9.17573 13.927 8.67819 14.4245C8.18064 14.9221 7.90113 15.5969 7.90113 16.3005C7.90324 16.6948 7.99446 17.0835 8.16795 17.4375H4.61666C4.41562 17.4375 4.22281 17.5174 4.08066 17.6595C3.9385 17.8017 3.85864 17.9945 3.85864 18.1955V21.9856C3.85864 22.1866 3.9385 22.3795 4.08066 22.5216C4.22281 22.6638 4.41562 22.7436 4.61666 22.7436H5.37467V32.5978C5.37467 32.7988 5.45453 32.9916 5.59669 33.1338C5.73884 33.2759 5.93165 33.3558 6.13268 33.3558H21.293C21.494 33.3558 21.6868 33.2759 21.8289 33.1338C21.9711 32.9916 22.051 32.7988 22.051 32.5978V22.7436H22.809C23.01 22.7436 23.2028 22.6638 23.345 22.5216C23.4871 22.3795 23.567 22.1866 23.567 21.9856V18.1955C23.567 17.9945 23.4871 17.8017 23.345 17.6595C23.2028 17.5174 23.01 17.4375 22.809 17.4375ZM11.4388 31.8398H6.8907V22.7436H11.4388V31.8398ZM11.4388 21.2276H5.37467V18.9536H11.4388V21.2276ZM10.5542 17.4375C10.2526 17.4375 9.96341 17.3177 9.75018 17.1045C9.53695 16.8913 9.41716 16.6021 9.41716 16.3005C9.41716 15.999 9.53695 15.7097 9.75018 15.4965C9.96341 15.2833 10.2526 15.1635 10.5542 15.1635C11.1693 15.1634 11.7611 15.3991 12.2077 15.8221C12.6542 16.2451 12.9216 16.8233 12.9548 17.4375H10.5542ZM14.4708 31.8398H12.9548V18.9536H14.4708V31.8398ZM16.8715 15.1635C17.173 15.1635 17.4622 15.2833 17.6755 15.4965C17.8887 15.7097 18.0085 15.999 18.0085 16.3005C18.0085 16.6021 17.8887 16.8913 17.6755 17.1045C17.4622 17.3177 17.173 17.4375 16.8715 17.4375H14.4708C14.504 16.8233 14.7714 16.2451 15.218 15.8221C15.6646 15.3991 16.2563 15.1634 16.8715 15.1635ZM20.5349 31.8398H15.9869V22.7436H20.5349V31.8398ZM22.051 21.2276H15.9869V18.9536H22.051V21.2276Z" fill="black"/>
</svg>
