<svg width="17" height="17" viewBox="0 0 17 17" fill="none" xmlns="http://www.w3.org/2000/svg">
  <path d="M16.5418 7.39694C16.5413 7.39658 16.5409 7.39605 16.5405 7.39565L9.60785 0.463287C9.31232 0.167598 8.91944 0.00488281 8.50157 0.00488281C8.08366 0.00488281 7.69078 0.167598 7.39516 0.463254L0.466081 7.39213C0.463757 7.39446 0.461301 7.39691 0.45911 7.39927C-0.147737 8.00957 -0.146674 8.9998 0.462097 9.60857C0.740194 9.88683 1.10738 10.0479 1.50016 10.0649C1.51623 10.0664 1.53233 10.0672 1.54853 10.0672H1.8247V15.1689C1.8247 16.1786 2.64624 17 3.65592 17H6.36821C6.64322 17 6.86612 16.777 6.86612 16.5021V12.5023C6.86612 12.0416 7.24097 11.6669 7.70167 11.6669H9.30144C9.76216 11.6669 10.1369 12.0416 10.1369 12.5023V16.5021C10.1369 16.777 10.3597 17 10.6348 17H13.347C14.3569 17 15.1783 16.1786 15.1783 15.1689V10.0672H15.4345C15.8523 10.0672 16.2451 9.90446 16.5409 9.6087C17.1503 8.99904 17.1506 8.00698 16.5418 7.39691L16.5418 7.39694ZM15.8367 8.90467C15.784 8.95767 15.7213 8.9997 15.6523 9.02833C15.5833 9.05695 15.5092 9.0716 15.4345 9.07143H14.6803C14.4053 9.07143 14.1824 9.29429 14.1824 9.56934V15.1689C14.1824 15.6295 13.8077 16.0042 13.347 16.0042H11.1327V12.5023C11.1327 11.4926 10.3112 10.6711 9.3014 10.6711H7.7017C6.69188 10.6711 5.87034 11.4926 5.87034 12.5023V16.0042H3.65599C3.1954 16.0042 2.82054 15.6295 2.82054 15.1689V9.5693C2.82054 9.29426 2.59764 9.0714 2.32264 9.0714H1.58145C1.57369 9.07085 1.5659 9.07049 1.55812 9.07034C1.40978 9.06775 1.27066 9.00889 1.16643 8.9045C0.9447 8.68277 0.9447 8.32195 1.16643 8.10009C1.16653 8.10009 1.16653 8.09995 1.16667 8.09982L1.16706 8.09942L8.09946 1.16732C8.15212 1.11432 8.21478 1.07229 8.2838 1.04369C8.35283 1.01508 8.42685 1.00047 8.50157 1.00069C8.6534 1.00069 8.79616 1.05981 8.90364 1.16732L15.8345 8.09803L15.8377 8.10115C16.0583 8.32328 16.0579 8.68336 15.8367 8.90467Z" fill="#E84144"/>
</svg>
