<svg width="21" height="23" viewBox="0 0 21 23" fill="none" xmlns="http://www.w3.org/2000/svg">
    <path fill-rule="evenodd" clip-rule="evenodd" d="M17.3292 12.5046C16.6046 13.5292 15.6594 14.3782 14.5633 14.9892C13.4672 15.6002 12.248 15.9577 10.9955 16.0353L14.6099 22.3609C14.6928 22.5058 14.8186 22.6214 14.97 22.6917C15.1213 22.762 15.2908 22.7836 15.455 22.7534C15.6192 22.7233 15.7699 22.6429 15.8864 22.5233C16.0029 22.4038 16.0794 22.251 16.1053 22.0861L16.6242 18.7771L19.9341 19.9043C20.089 19.9574 20.2564 19.962 20.414 19.9174C20.5716 19.8729 20.7119 19.7813 20.8161 19.655C20.9203 19.5286 20.9834 19.3735 20.9972 19.2103C21.0109 19.0471 20.9745 18.8836 20.8929 18.7416L17.3292 12.5046ZM3.64904 12.5433L0.107136 18.7416C0.025498 18.8836 -0.0108901 19.0471 0.00283017 19.2103C0.0165504 19.3735 0.0797262 19.5286 0.183923 19.655C0.28812 19.7813 0.42838 19.8729 0.585978 19.9174C0.743575 19.962 0.911011 19.9574 1.06593 19.9043L4.37579 18.7771L4.89467 22.0861C4.92103 22.2507 4.99774 22.4031 5.11425 22.5223C5.23076 22.6416 5.38135 22.7217 5.5453 22.7519C5.70925 22.782 5.8785 22.7606 6.02978 22.6905C6.18106 22.6205 6.30693 22.5054 6.39007 22.3609L10.0037 16.0385C8.7505 15.9682 7.52905 15.6177 6.42927 15.0128C5.3295 14.4079 4.37943 13.5641 3.64904 12.5433ZM10.475 0C6.25068 0 2.82077 3.42991 2.82077 7.65425C2.82077 11.8786 6.25068 15.3085 10.475 15.3085C14.6994 15.3085 18.1293 11.8786 18.1293 7.65425C18.1293 3.42991 14.6994 0 10.475 0ZM6.88961 8.37456L9.09404 10.5782C9.17371 10.658 9.26927 10.7203 9.37455 10.7608C9.47982 10.8014 9.59244 10.8194 9.7051 10.8136C9.81777 10.8078 9.92796 10.7784 10.0285 10.7273C10.1291 10.6762 10.2178 10.6045 10.2889 10.5169L14.116 5.80837C14.2509 5.64244 14.3143 5.42974 14.2923 5.21707C14.2703 5.0044 14.1647 4.80917 13.9988 4.67433C13.8329 4.53949 13.6202 4.47609 13.4075 4.49808C13.1948 4.52006 12.9996 4.62563 12.8648 4.79156L9.60163 8.80722L8.02969 7.23528C7.87861 7.0841 7.67367 6.99912 7.45994 6.99905C7.2462 6.99897 7.0412 7.0838 6.89001 7.23488C6.73883 7.38596 6.65385 7.5909 6.65378 7.80464C6.6537 8.01837 6.73853 8.22337 6.88961 8.37456Z" fill="#E84144"/>
</svg>
