<svg width="42" height="42" viewBox="0 0 42 42" fill="none" xmlns="http://www.w3.org/2000/svg">
    <path d="M37.8206 25.8645C37.3866 26.8934 35.7766 27.2854 35.0906 28.1604C35.0626 28.194 35.0367 28.229 35.0136 28.2654C34.3766 29.2174 34.6776 30.9604 33.8656 31.7724C33.0536 32.5844 31.3176 32.2764 30.3587 32.9134C29.3997 33.5504 29.0581 35.2577 27.9647 35.7203C26.9147 36.1543 25.4307 35.2024 24.2897 35.4333C23.1837 35.6503 22.1687 37.0993 20.9998 37.0993C19.8308 37.0993 18.8158 35.6503 17.7098 35.4333C16.5688 35.2024 15.0848 36.1543 14.0348 35.7203C12.9407 35.2577 12.6033 33.5567 11.6339 32.9134C10.6819 32.2764 8.93888 32.5774 8.12689 31.7654C7.3149 30.9534 7.62289 29.2174 6.9859 28.2584C6.96419 28.2228 6.93834 28.1899 6.9089 28.1604C6.22291 27.2854 4.61292 26.8934 4.17893 25.8645C3.74493 24.8145 4.69692 23.3305 4.46593 22.1895C4.24893 21.0835 2.79994 20.0685 2.79994 18.8995C2.79994 17.7305 4.24893 16.7155 4.46593 15.6096C4.69692 14.4686 3.74493 12.9846 4.17893 11.9346C4.62692 10.8636 6.34891 10.4856 6.9859 9.53362C7.62289 8.58163 7.3219 6.83864 8.13389 6.02665C8.94588 5.21466 10.6819 5.52266 11.6409 4.88566C12.5858 4.24867 12.9638 2.52669 14.0348 2.07869C15.0848 1.6447 16.5688 2.59669 17.7098 2.36569C18.8158 2.14869 19.8308 0.699707 20.9998 0.699707C22.1687 0.699707 23.1837 2.14869 24.2897 2.36569C25.4307 2.59669 26.9147 1.6447 27.9647 2.07869C29.0357 2.52669 29.4137 4.24867 30.3657 4.88566C31.3177 5.52266 33.0606 5.22166 33.8726 6.03365C34.6846 6.84564 34.3766 8.58163 35.0136 9.54062C35.6506 10.4856 37.3726 10.8636 37.8206 11.9346C38.2546 12.9846 37.3026 14.4686 37.5336 15.6096C37.7506 16.7155 39.1996 17.7305 39.1996 18.8995C39.1996 20.0685 37.7506 21.0835 37.5336 22.1895C37.3026 23.3305 38.2546 24.8145 37.8206 25.8645Z" fill="#E84144"/>
    <path d="M37.5336 22.19C37.7506 21.084 39.1995 20.069 39.1995 18.9C39.1995 17.731 37.7506 16.716 37.5336 15.61C37.3026 14.4691 38.2546 12.9851 37.8206 11.9351C37.3726 10.8641 35.6506 10.4861 35.0136 9.54111C34.3766 8.58212 34.6776 6.83914 33.8726 6.03414C33.0676 5.22915 31.3176 5.52315 30.3656 4.88616C29.4136 4.24916 29.0356 2.52718 27.9647 2.07919C27.3244 1.91498 26.6494 1.94941 26.0292 2.17788C26.9721 2.72808 27.3662 4.28416 28.2692 4.88616C29.2211 5.52315 30.9641 5.22215 31.7761 6.03414C32.5881 6.84614 32.2801 8.58212 32.9171 9.54111C33.5541 10.4861 35.2761 10.8641 35.7241 11.9351C36.1581 12.9851 35.2061 14.4691 35.4371 15.61C35.6506 16.716 37.0996 17.731 37.0996 18.9C37.0996 20.069 35.6506 21.084 35.4336 22.19C35.2026 23.331 36.1546 24.815 35.7206 25.8649C35.2866 26.8939 33.6766 27.2859 32.9906 28.1609C32.9626 28.1945 32.9367 28.2295 32.9136 28.2659C32.2766 29.2179 32.5776 30.9609 31.7656 31.7729C30.9536 32.5849 29.2176 32.2769 28.2587 32.9139C27.3487 33.5243 26.9889 35.0635 26.0292 35.6221C26.6494 35.8503 27.3242 35.8853 27.9647 35.7208C29.058 35.2581 29.394 33.5593 30.3586 32.9139C31.3232 32.2685 33.0606 32.5779 33.8656 31.7729C34.6706 30.9679 34.3766 29.2179 35.0136 28.2659C35.0367 28.2295 35.0626 28.1945 35.0906 28.1609C35.7766 27.2859 37.3866 26.8939 37.8206 25.8649C38.2546 24.815 37.3026 23.331 37.5336 22.19ZM13.5378 35.3918L7.62986 41.2998L6.29988 35.6998L0.699936 34.3699L6.90887 28.1609C6.93827 28.1903 6.96417 28.2239 6.98587 28.2589C7.62286 29.2179 7.32187 30.9609 8.12686 31.7659C8.93185 32.5709 10.6818 32.2769 11.6338 32.9139C12.4248 33.4389 12.8168 34.7129 13.5378 35.3918Z" fill="#E84144"/>
    <path d="M41.2995 34.3696L35.6996 35.6996L34.3696 41.2995L28.4617 35.3916C29.1826 34.7126 29.5746 33.4386 30.3586 32.9136C31.3176 32.2766 33.0606 32.5776 33.8656 31.7726C34.6706 30.9676 34.3766 29.2176 35.0136 28.2656C35.0367 28.2292 35.0626 28.1942 35.0906 28.1606L41.2995 34.3696Z" fill="#E84144"/>
    <path d="M20.9997 32.8996C28.7317 32.8996 34.9996 26.6317 34.9996 18.8998C34.9996 11.1679 28.7317 4.8999 20.9997 4.8999C13.2678 4.8999 6.99989 11.1679 6.99989 18.8998C6.99989 26.6317 13.2678 32.8996 20.9997 32.8996Z" fill="#F5F5F5"/>
    <path d="M20.9998 4.8999C20.6456 4.8999 20.2998 4.9272 19.9498 4.9531C27.2507 5.4963 32.8982 11.5785 32.8982 18.8998C32.8982 26.221 27.2507 32.3032 19.9498 32.8464C20.2998 32.8723 20.6456 32.8996 20.9998 32.8996C28.7319 32.8996 34.9996 26.6319 34.9996 18.8998C34.9996 11.1676 28.7319 4.8999 20.9998 4.8999Z" fill="#CFD8DC"/>
    <path d="M22.3297 9.23548L24.2582 13.2996C24.4605 13.735 24.8658 14.0416 25.3397 14.1172L29.616 14.7626C29.8885 14.8168 30.1412 14.9439 30.3472 15.1303C30.5532 15.3167 30.7048 15.5555 30.7859 15.8212C30.867 16.0869 30.8745 16.3697 30.8077 16.6394C30.7408 16.909 30.6021 17.1555 30.4062 17.3526L27.3382 20.462C27.1671 20.6383 27.04 20.8524 26.967 21.087C26.894 21.3216 26.8773 21.57 26.9182 21.8123L27.6462 26.2222C27.7037 26.4902 27.6842 26.769 27.5901 27.0264C27.4959 27.2838 27.3309 27.5093 27.114 27.6769C26.8971 27.8445 26.6373 27.9474 26.3644 27.9736C26.0916 27.9999 25.8169 27.9484 25.5721 27.8252L21.7081 25.7133C21.5059 25.6021 21.2788 25.5438 21.048 25.5438C20.8172 25.5438 20.5902 25.6021 20.388 25.7133L16.524 27.8252C16.2792 27.9485 16.0045 28 15.7317 27.9738C15.4588 27.9476 15.199 27.8448 14.9821 27.6771C14.7653 27.5095 14.6003 27.2839 14.5063 27.0264C14.4122 26.769 14.3929 26.4902 14.4506 26.2222L15.1779 21.8123C15.219 21.57 15.2023 21.3215 15.1293 21.0869C15.0564 20.8523 14.9291 20.6382 14.7579 20.462L11.6898 17.3519C11.494 17.1548 11.3553 16.9082 11.2885 16.6385C11.2217 16.3688 11.2292 16.086 11.3104 15.8202C11.3916 15.5545 11.5433 15.3157 11.7494 15.1294C11.9555 14.943 12.2083 14.816 12.4808 14.7619L16.7571 14.1165C16.9901 14.079 17.2103 13.9849 17.3985 13.8425C17.5867 13.7001 17.7371 13.5137 17.8365 13.2996L19.7643 9.23968C19.8729 8.99006 20.052 8.77753 20.2796 8.62811C20.5072 8.4787 20.7734 8.39889 21.0456 8.39844C21.3179 8.39799 21.5843 8.47694 21.8124 8.62561C22.0405 8.77427 22.2203 8.98622 22.3297 9.23548Z" fill="#FFDC00"/>
    <path d="M30.4049 17.352C30.6007 17.155 30.7394 16.9085 30.8063 16.6388C30.8731 16.3691 30.8656 16.0864 30.7845 15.8206C30.7034 15.5549 30.5518 15.3161 30.3458 15.1297C30.1398 14.9433 29.8871 14.8162 29.6146 14.7621L25.3397 14.1174C25.1063 14.0801 24.8856 13.986 24.697 13.8435C24.5084 13.7009 24.3577 13.5142 24.2582 13.2998L22.3304 9.23982C22.2351 9.0249 22.0871 8.83746 21.9002 8.6948C21.7132 8.55215 21.4934 8.45887 21.2609 8.42357C21.0285 8.38828 20.7908 8.41211 20.57 8.49286C20.3492 8.57362 20.1522 8.70869 19.9974 8.88562C20.0912 8.99202 20.1696 9.11172 20.2305 9.23982L22.1582 13.2998C22.3605 13.7352 22.7658 14.0418 23.2397 14.1174L27.516 14.7628C27.7885 14.8169 28.0412 14.944 28.2472 15.1304C28.4532 15.3168 28.6049 15.5556 28.6859 15.8213C28.767 16.0871 28.7745 16.3698 28.7077 16.6395C28.6408 16.9092 28.5021 17.1557 28.3063 17.3527L25.2382 20.4621C25.0671 20.6384 24.94 20.8525 24.867 21.0871C24.7941 21.3217 24.7773 21.5701 24.8182 21.8124L25.5462 26.2223C25.5883 26.4659 25.5706 26.716 25.4945 26.9511C25.4184 27.1862 25.2862 27.3993 25.1094 27.5719L25.5721 27.8253C25.8169 27.9485 26.0916 28 26.3644 27.9738C26.6373 27.9475 26.8971 27.8447 27.114 27.677C27.3309 27.5094 27.4959 27.2839 27.5901 27.0265C27.6842 26.7691 27.7037 26.4903 27.6462 26.2223L26.9182 21.8124C26.8773 21.5701 26.894 21.3217 26.967 21.0871C27.04 20.8525 27.1671 20.6384 27.3382 20.4621L30.4049 17.352Z" fill="#FEC108"/>
    <path d="M0.5382 35.0507L5.71815 36.2813L6.94873 41.4613C6.97753 41.5825 7.03814 41.6938 7.12431 41.7837C7.21049 41.8737 7.3191 41.939 7.43895 41.973C7.5588 42.0069 7.68554 42.0083 7.80609 41.9769C7.92664 41.9455 8.03664 41.8826 8.12472 41.7945L13.6253 36.2939C13.6715 36.3177 13.7156 36.3443 13.7653 36.3639C14.5497 36.5939 15.3868 36.5694 16.1564 36.2939C16.6135 36.1441 17.0944 36.0839 17.5746 36.1147C18.012 36.2669 18.4171 36.4995 18.7688 36.8007C19.3876 37.3621 20.1688 37.7121 20.9997 37.7996C21.8305 37.7131 22.6122 37.3642 23.2313 36.8035C23.583 36.5023 23.9881 36.2697 24.4255 36.1175C24.905 36.0869 25.3861 36.1477 25.8429 36.2967C26.6126 36.5719 27.4497 36.5964 28.2341 36.3667C28.2831 36.3464 28.3279 36.3191 28.3741 36.2967L33.8747 41.7973C33.963 41.8848 34.073 41.9472 34.1935 41.9781C34.3139 42.0089 34.4404 42.0072 34.56 41.973C34.6798 41.939 34.7883 41.8736 34.8745 41.7837C34.9606 41.6937 35.0212 41.5824 35.0499 41.4613L36.2805 36.2813L41.4605 35.0507C41.5817 35.022 41.693 34.9613 41.7829 34.8752C41.8729 34.789 41.9382 34.6804 41.9722 34.5605C42.0061 34.4407 42.0075 34.3139 41.9761 34.1934C41.9447 34.0728 41.8818 33.9628 41.7937 33.8748L36.102 28.1831C36.2882 28.0515 36.4954 27.9234 36.7026 27.7981C37.4512 27.4446 38.068 26.8621 38.4638 26.1349C38.6935 25.3505 38.669 24.5134 38.3938 23.7438C38.2446 23.2865 38.184 22.8049 38.2153 22.3249C38.3672 21.8874 38.6003 21.4828 38.9006 21.1307C39.4627 20.5126 39.8127 19.7307 39.8995 18.8998C39.8132 18.0692 39.4642 17.2877 38.9034 16.6689C38.6024 16.3169 38.37 15.9116 38.2181 15.474C38.187 14.9945 38.2476 14.5134 38.3966 14.0566C38.6724 13.2866 38.6969 12.4501 38.4666 11.6654C38.071 10.9381 37.4542 10.3555 36.7054 10.0022C36.2859 9.78937 35.91 9.49969 35.5973 9.14821C35.3887 8.72157 35.2624 8.25945 35.2249 7.78602C35.1837 6.96414 34.883 6.17649 34.3661 5.53624C33.7258 5.01883 32.9378 4.71808 32.1156 4.67735C31.6416 4.64016 31.1789 4.51357 30.752 4.30426C30.4001 3.99192 30.1104 3.61597 29.898 3.19617C29.5447 2.44741 28.9621 1.83057 28.2348 1.43499C27.4504 1.20459 26.6132 1.2291 25.8436 1.50498C25.3863 1.65316 24.9052 1.71395 24.4255 1.68418C23.9881 1.53205 23.583 1.29938 23.2313 0.99819C22.6124 0.436707 21.8307 0.0870584 20.9997 0C20.1689 0.0864699 19.3872 0.43537 18.7681 0.99609C18.4164 1.29728 18.0113 1.52995 17.5739 1.68208C17.0943 1.71311 16.6132 1.65229 16.1564 1.50288C15.3868 1.22734 14.5497 1.20283 13.7653 1.43289C13.0377 1.82853 12.4552 2.44567 12.1021 3.19477C11.8892 3.61447 11.5993 3.99037 11.2474 4.30286C10.8204 4.51145 10.3584 4.63815 9.8845 4.67595C9.0629 4.71687 8.27544 5.01734 7.63543 5.53414C7.11853 6.17438 6.81805 6.96208 6.77724 7.78392C6.73973 8.25787 6.61315 8.72049 6.40414 9.14751C6.09146 9.49899 5.71559 9.78867 5.29605 10.0015C4.54743 10.355 3.93065 10.9375 3.53487 11.6647C3.30515 12.4491 3.32966 13.2862 3.60487 14.0559C3.75292 14.5134 3.81232 14.995 3.77987 15.4747C3.62783 15.912 3.39541 16.317 3.09457 16.6689C2.53458 17.2877 2.18598 18.0689 2.09988 18.8998C2.18621 19.7304 2.53514 20.5119 3.09597 21.1307C3.39649 21.4828 3.62845 21.8881 3.77987 22.3256C3.81101 22.8051 3.75043 23.2862 3.60137 23.7431C3.32582 24.5127 3.30132 25.3498 3.53137 26.1342C3.92695 26.8616 4.54379 27.4441 5.29255 27.7974C5.50255 27.9234 5.70765 28.0515 5.89385 28.1824L0.205003 33.8748C0.116925 33.9628 0.0539472 34.0728 0.0225703 34.1934C-0.00880664 34.3139 -0.00744626 34.4407 0.026511 34.5605C0.0604683 34.6804 0.125792 34.789 0.215741 34.8752C0.30569 34.9613 0.417006 35.022 0.5382 35.0507ZM35.5378 35.0185C35.4116 35.0485 35.2963 35.1129 35.2045 35.2046C35.1128 35.2964 35.0484 35.4117 35.0184 35.5379L33.9783 39.9185L29.4122 35.3496C29.59 35.1046 29.7475 34.847 29.8973 34.6007C30.1101 34.1807 30.3999 33.8048 30.752 33.4926C31.1789 33.2839 31.6412 33.1573 32.1149 33.1195C32.9365 33.0785 33.7239 32.7781 34.364 32.2613C34.8806 31.6214 35.181 30.8342 35.2221 30.0129C35.2557 29.8029 35.2921 29.5929 35.3334 29.3906L39.9177 33.9756L35.5378 35.0185ZM4.82986 25.598C4.74049 25.0865 4.78733 24.5605 4.96565 24.0728C5.17495 23.4218 5.24005 22.7323 5.15745 22.0533C4.97852 21.4094 4.66154 20.8123 4.22856 20.3033C3.8635 19.9098 3.6117 19.4248 3.49987 18.8998C3.61086 18.3745 3.86194 17.8891 4.22646 17.4949C4.65944 16.9859 4.97641 16.3888 5.15535 15.7449C5.23809 15.0656 5.17289 14.3765 4.96425 13.7248C4.78671 13.2373 4.74036 12.7118 4.82986 12.2009C5.13149 11.7669 5.54351 11.4214 6.02334 11.1999C6.62411 10.8928 7.15117 10.4591 7.56823 9.9287C7.90279 9.33728 8.10485 8.68023 8.16042 8.00302C8.18142 7.47872 8.34242 6.96983 8.62522 6.52743C9.06753 6.24454 9.57692 6.08392 10.1015 6.06194C10.7788 6.0067 11.4359 5.80462 12.0272 5.46974C12.5583 5.05279 12.9925 4.52544 13.2998 3.92416C13.612 3.41107 13.934 2.88047 14.3036 2.72787C14.8151 2.63811 15.3412 2.68496 15.8288 2.86367C16.4798 3.07227 17.1693 3.13807 17.8483 3.05547C18.4923 2.87676 19.0895 2.55977 19.5983 2.12658C19.9917 1.76295 20.4758 1.51197 20.9997 1.39999C21.5247 1.51128 22.0105 1.76258 22.4053 2.12658C22.9141 2.55977 23.5113 2.87676 24.1553 3.05547C24.8343 3.13877 25.5237 3.07297 26.1747 2.86367C26.6621 2.68607 27.1877 2.63996 27.6986 2.72997C28.1326 3.03097 28.4784 3.44396 28.6996 3.92346C29.0066 4.52435 29.4403 5.05144 29.9708 5.46834C30.562 5.80281 31.2188 6.00487 31.8958 6.06054C32.4208 6.08154 32.9297 6.24254 33.3721 6.52603C33.6556 6.96843 33.8159 7.47802 33.8376 8.00232C33.8931 8.679 34.0949 9.33555 34.4291 9.9266C34.8474 10.4585 35.3764 10.893 35.9795 11.1999C36.4583 11.4218 36.8685 11.7676 37.1695 12.2016C37.2591 12.7126 37.2115 13.239 37.0337 13.7269C36.8245 14.3782 36.7591 15.0672 36.8419 15.7463C37.0211 16.3903 37.3375 16.9874 37.7708 17.4963C38.1359 17.8898 38.3877 18.3748 38.4995 18.8998C38.3885 19.4251 38.1374 19.9105 37.7729 20.3047C37.3399 20.8137 37.023 21.4108 36.844 22.0547C36.7613 22.734 36.8265 23.4231 37.0351 24.0749C37.215 24.5621 37.2633 25.0884 37.1751 25.6001C36.8727 26.0339 36.46 26.3789 35.9795 26.5997C35.3788 26.9069 34.8517 27.3405 34.4347 27.8709C34.1001 28.4623 33.898 29.1194 33.8425 29.7966C33.8208 30.3209 33.6604 30.8301 33.3777 31.2722C32.9353 31.5551 32.426 31.7157 31.9014 31.7377C31.2241 31.7929 30.567 31.995 29.9757 32.3299C29.4433 32.7465 29.0079 33.2738 28.6996 33.8755C28.3874 34.3885 28.0654 34.9191 27.6958 35.0717C27.1848 35.1613 26.6584 35.1137 26.1705 34.9359C25.5192 34.7265 24.8302 34.661 24.1511 34.7441C23.5071 34.9229 22.9099 35.2399 22.4011 35.673C22.0077 36.0367 21.5236 36.2877 20.9997 36.3996C20.4743 36.2884 19.9887 36.0373 19.5941 35.673C19.0853 35.2399 18.4881 34.9229 17.8441 34.7441C17.6721 34.7105 17.4972 34.6941 17.3219 34.6951C16.8151 34.7162 16.3125 34.797 15.8246 34.9359C15.3368 35.1146 14.8104 35.1615 14.2987 35.0717C13.8657 34.7702 13.5209 34.3587 13.2998 33.8797C12.9928 33.2788 12.5591 32.7517 12.0286 32.3348C11.4374 32.0003 10.7806 31.7982 10.1036 31.7426C9.57896 31.7209 9.06949 31.5603 8.62732 31.2771C8.34412 30.8349 8.18347 30.3254 8.16182 29.8008C8.10627 29.1241 7.90446 28.4676 7.57033 27.8765C7.1534 27.3437 6.62553 26.9081 6.02334 26.5997C5.54342 26.3781 5.1314 26.0322 4.82986 25.598ZM6.66804 29.3934C6.71004 29.5936 6.74574 29.8036 6.77864 30.0136C6.81984 30.8355 7.12054 31.6231 7.63753 32.2634C8.27722 32.7804 9.06444 33.0811 9.8859 33.1223C10.3599 33.1595 10.8226 33.286 11.2495 33.4954C11.6016 33.8076 11.8914 34.1835 12.1035 34.6034C12.2533 34.8498 12.4108 35.1081 12.5893 35.3524L8.02322 39.9185L6.98093 35.5379C6.95098 35.4117 6.88655 35.2964 6.79484 35.2046C6.70312 35.1129 6.58773 35.0485 6.46154 35.0185L2.08168 33.9784L6.66804 29.3934Z" fill="black"/>
    <path d="M20.9998 33.5994C29.1183 33.5994 35.6997 27.0181 35.6997 18.8996C35.6997 10.781 29.1183 4.19971 20.9998 4.19971C12.8813 4.19971 6.29996 10.781 6.29996 18.8996C6.30906 27.0139 12.8855 33.5903 20.9998 33.5994ZM20.9998 5.59969C28.3448 5.59969 34.2997 11.5545 34.2997 18.8996C34.2997 26.2446 28.3448 32.1994 20.9998 32.1994C13.6548 32.1994 7.69994 26.2446 7.69994 18.8996C7.70834 11.5573 13.6576 5.60809 20.9998 5.59969Z" fill="black"/>
    <path d="M14.4899 21.7L13.7619 26.11C13.6885 26.5243 13.7339 26.9509 13.893 27.3403C14.0521 27.7298 14.3182 28.0663 14.6607 28.3108C14.9778 28.5382 15.3529 28.6712 15.7426 28.6942C16.1322 28.7173 16.5204 28.6295 16.8621 28.441L20.7198 26.3291C20.8191 26.2737 20.9309 26.2446 21.0446 26.2446C21.1583 26.2446 21.2701 26.2737 21.3694 26.3291L25.2334 28.441C25.5749 28.6293 25.9629 28.717 26.3522 28.6939C26.7416 28.6709 27.1164 28.538 27.4334 28.3108C27.7766 28.0668 28.0435 27.7305 28.2032 27.341C28.3629 26.9514 28.4088 26.5246 28.3357 26.11L27.6077 21.7C27.5845 21.5667 27.5931 21.4298 27.6328 21.3003C27.6724 21.1709 27.742 21.0527 27.8359 20.9552L30.9033 17.8466C31.1962 17.5487 31.4006 17.1753 31.4935 16.768C31.5865 16.3607 31.5644 15.9355 31.4297 15.5401C31.3092 15.1605 31.0854 14.8219 30.7833 14.5623C30.4813 14.3027 30.113 14.1323 29.7196 14.0701L25.4433 13.424C25.3234 13.4031 25.2104 13.3532 25.1142 13.2785C25.0181 13.2038 24.9417 13.1067 24.8918 12.9956L22.964 8.93566C22.7981 8.56644 22.529 8.25303 22.1892 8.03315C21.8494 7.81327 21.4532 7.69629 21.0484 7.69629C20.6437 7.69629 20.2475 7.81327 19.9077 8.03315C19.5678 8.25303 19.2988 8.56644 19.1329 8.93566L17.2051 12.9956C17.1036 13.221 16.8971 13.3813 16.6535 13.424L12.3773 14.0701C11.9838 14.1323 11.6154 14.3027 11.3133 14.5623C11.0112 14.8219 10.7872 15.1605 10.6665 15.5401C10.5322 15.9353 10.5102 16.3601 10.603 16.7671C10.6958 17.174 10.8998 17.5473 11.1922 17.8452L14.2603 20.9545C14.4514 21.1519 14.5368 21.4291 14.4899 21.7ZM11.9979 15.9818C12.0784 15.7088 12.3073 15.5044 12.588 15.4568L16.8649 14.8107C17.2122 14.7562 17.5407 14.6171 17.8214 14.4057C18.1022 14.1943 18.3266 13.917 18.4749 13.5983L20.4027 9.53835C20.4544 9.40801 20.5441 9.2962 20.6601 9.21742C20.7761 9.13865 20.9131 9.09653 21.0533 9.09653C21.1936 9.09653 21.3306 9.13865 21.4466 9.21742C21.5626 9.2962 21.6523 9.40801 21.704 9.53835L23.6318 13.5983C23.78 13.917 24.0044 14.1944 24.2851 14.4058C24.5659 14.6173 24.8945 14.7563 25.2418 14.8107L29.518 15.4568C29.7994 15.5044 30.029 15.7088 30.1088 15.9818C30.2152 16.2884 30.1403 16.6286 29.9156 16.8624L26.8482 19.971C26.5986 20.2262 26.413 20.5368 26.3066 20.8775C26.2001 21.2181 26.1758 21.5792 26.2357 21.931L26.9637 26.341C26.9928 26.4965 26.9773 26.6571 26.9191 26.8042C26.8609 26.9513 26.7623 27.079 26.6347 27.1726C26.5318 27.2482 26.4092 27.2925 26.2817 27.3001C26.1542 27.3078 26.0272 27.2786 25.9158 27.216L22.0519 25.1041C21.7468 24.9365 21.4043 24.8487 21.0561 24.8487C20.708 24.8487 20.3655 24.9365 20.0604 25.1041L16.1964 27.216C16.0851 27.2789 15.9579 27.3083 15.8302 27.3006C15.7025 27.2929 15.5798 27.2485 15.4769 27.1726C15.3494 27.0789 15.251 26.9512 15.1929 26.8041C15.1348 26.657 15.1194 26.4964 15.1486 26.341L15.8765 21.931C15.9356 21.58 15.9109 21.22 15.8046 20.8803C15.6983 20.5406 15.5133 20.2307 15.2648 19.9759L12.1967 16.8659C12.0838 16.7518 12.0051 16.6084 11.9695 16.4519C11.9339 16.2954 11.9428 16.1321 11.9951 15.9804L11.9979 15.9818Z" fill="black"/>
</svg>
