<svg width="20" height="16" viewBox="0 0 20 16" fill="none" xmlns="http://www.w3.org/2000/svg">
<path d="M18.8889 2.55556H1.77778C1.5715 2.55556 1.37367 2.47361 1.22781 2.32775C1.08194 2.18189 1 1.98406 1 1.77778C1 1.5715 1.08194 1.37367 1.22781 1.22781C1.37367 1.08194 1.5715 1 1.77778 1H18.8889C19.0952 1 19.293 1.08194 19.4389 1.22781C19.5847 1.37367 19.6667 1.5715 19.6667 1.77778C19.6667 1.98406 19.5847 2.18189 19.4389 2.32775C19.293 2.47361 19.0952 2.55556 18.8889 2.55556ZM19.6667 8C19.6667 7.79372 19.5847 7.59589 19.4389 7.45003C19.293 7.30417 19.0952 7.22222 18.8889 7.22222H1.77778C1.5715 7.22222 1.37367 7.30417 1.22781 7.45003C1.08194 7.59589 1 7.79372 1 8C1 8.20628 1.08194 8.40411 1.22781 8.54997C1.37367 8.69583 1.5715 8.77778 1.77778 8.77778H18.8889C19.0952 8.77778 19.293 8.69583 19.4389 8.54997C19.5847 8.40411 19.6667 8.20628 19.6667 8ZM19.6667 14.2222C19.6667 14.0159 19.5847 13.8181 19.4389 13.6722C19.293 13.5264 19.0952 13.4444 18.8889 13.4444H1.77778C1.5715 13.4444 1.37367 13.5264 1.22781 13.6722C1.08194 13.8181 1 14.0159 1 14.2222C1 14.4285 1.08194 14.6263 1.22781 14.7722C1.37367 14.9181 1.5715 15 1.77778 15H18.8889C19.0952 15 19.293 14.9181 19.4389 14.7722C19.5847 14.6263 19.6667 14.4285 19.6667 14.2222Z" fill="black" stroke="white" stroke-width="0.5"/>
</svg>
