<svg xmlns="http://www.w3.org/2000/svg" width="20.292" height="20.29" viewBox="0 0 20.292 20.29">
  <g id="Group_18823" data-name="Group 18823" transform="translate(-11.999 1.706)">
    <g id="noun_offer_2340123" transform="translate(9.349 -4.356)">
      <g id="Group_18823-2" data-name="Group 18823" transform="translate(2.65 2.65)">
        <path id="Path_22824" data-name="Path 22824" d="M22.127,10.618l-.749-.877a1.522,1.522,0,0,1-.364-.877l-.086-1.155A3.307,3.307,0,0,0,17.87,4.65l-1.155-.086a1.466,1.466,0,0,1-.877-.364l-.877-.749a3.339,3.339,0,0,0-4.342,0L9.741,4.2a1.522,1.522,0,0,1-.877.364L7.709,4.65A3.307,3.307,0,0,0,4.65,7.709L4.565,8.864a1.466,1.466,0,0,1-.364.877l-.749.877a3.339,3.339,0,0,0,0,4.342l.749.877a1.522,1.522,0,0,1,.364.877L4.65,17.87a3.307,3.307,0,0,0,3.059,3.059l1.155.086a1.466,1.466,0,0,1,.877.364l.877.749a3.278,3.278,0,0,0,4.321,0l.877-.749a1.522,1.522,0,0,1,.877-.364l1.155-.086a3.307,3.307,0,0,0,3.059-3.059l.086-1.155a1.466,1.466,0,0,1,.364-.877l.749-.877A3.266,3.266,0,0,0,22.127,10.618Zm-1.369,3.166-.749.877a3.3,3.3,0,0,0-.791,1.9l-.086,1.155a1.536,1.536,0,0,1-1.412,1.412l-1.155.086a3.3,3.3,0,0,0-1.9.791l-.877.749a1.554,1.554,0,0,1-2.011,0l-.877-.749a3.3,3.3,0,0,0-1.9-.791l-1.155-.086A1.536,1.536,0,0,1,6.426,17.72L6.34,16.565a3.3,3.3,0,0,0-.791-1.9L4.8,13.784a1.554,1.554,0,0,1,0-2.011l.749-.877a3.3,3.3,0,0,0,.791-1.9l.086-1.155A1.536,1.536,0,0,1,7.837,6.426L8.993,6.34a3.3,3.3,0,0,0,1.9-.791l.877-.749a1.5,1.5,0,0,1,1.005-.364,1.613,1.613,0,0,1,1.005.364l.877.749a3.3,3.3,0,0,0,1.9.791l1.155.086a1.536,1.536,0,0,1,1.412,1.412l.086,1.155a3.3,3.3,0,0,0,.791,1.9l.749.877A1.505,1.505,0,0,1,20.758,13.784Z" transform="translate(-2.65 -2.65)" fill="#8d8d8d"/>
        <path id="Path_22825" data-name="Path 22825" d="M38.986,31.457a.9.9,0,0,0-1.262,0l-6.268,6.268a.888.888,0,0,0,.642,1.519.943.943,0,0,0,.642-.257l6.268-6.268A.885.885,0,0,0,38.986,31.457Z" transform="translate(-25.093 -25.093)" fill="#8d8d8d"/>
        <circle id="Ellipse_6279" data-name="Ellipse 6279" cx="1.519" cy="1.519" r="1.519" transform="translate(5.701 5.701)" fill="#8d8d8d"/>
        <circle id="Ellipse_6280" data-name="Ellipse 6280" cx="1.519" cy="1.519" r="1.519" transform="translate(11.519 11.519)" fill="#8d8d8d"/>
      </g>
    </g>
  </g>
</svg>
