<svg width="24" height="24" viewBox="0 0 24 24" fill="none" xmlns="http://www.w3.org/2000/svg">
    <path d="M23 11.1699C23.469 11.1699 23.8494 11.5506 23.8496 12.0195C23.8496 18.5427 18.5617 23.8496 12.0625 23.8496C9.22673 23.8496 6.56245 22.854 4.45801 21.0625L4.21094 20.8516V21.9717C4.21084 22.4406 3.83028 22.8211 3.36133 22.8213C2.89223 22.8213 2.51084 22.4408 2.51074 21.9717V18.6729C2.51092 18.6708 2.51216 18.6682 2.5127 18.6641C2.51352 18.6577 2.51545 18.6407 2.5166 18.625V18.624C2.51916 18.5872 2.52182 18.5592 2.52637 18.5322V18.5303C2.5299 18.5082 2.53611 18.4867 2.54492 18.4531C2.55291 18.4231 2.55927 18.3966 2.56836 18.3721C2.57729 18.349 2.58891 18.3256 2.60156 18.3008L2.60254 18.2998C2.61659 18.2717 2.62814 18.2471 2.6416 18.2256C2.65541 18.2045 2.67213 18.1841 2.69043 18.1602C2.70972 18.1349 2.72532 18.1147 2.74219 18.0967H2.74316C2.76055 18.0779 2.78025 18.0599 2.80762 18.0361L2.80859 18.0352C2.82114 18.0241 2.83289 18.0118 2.83789 18.0068C2.84044 18.0043 2.84237 18.0023 2.84375 18.001L2.86816 17.9863L2.86719 17.9854C2.88878 17.9701 2.91231 17.9568 2.94434 17.9385L2.94531 17.9395C2.97806 17.9209 2.99336 17.9102 3.0127 17.9014V17.9023C3.03359 17.893 3.04987 17.8873 3.08789 17.874L3.08887 17.875C3.12693 17.8621 3.14869 17.8539 3.17188 17.8486L3.17285 17.8477C3.19158 17.8432 3.20479 17.8434 3.24316 17.8379C3.28102 17.8324 3.31152 17.8279 3.33984 17.8271L3.33887 17.8262C3.34671 17.826 3.35342 17.8267 3.3584 17.8262C3.36043 17.8259 3.36252 17.8254 3.36426 17.8252H6.64355C7.11262 17.8252 7.49306 18.2058 7.49316 18.6748C7.49316 19.1439 7.11269 19.5254 6.64355 19.5254H5.27246L5.58594 19.79C7.38293 21.3078 9.6515 22.1504 12.0625 22.1504C17.6254 22.1504 22.1504 17.6048 22.1504 12.0195C22.1506 11.5506 22.531 11.1699 23 11.1699ZM11.9375 0.150391C14.8205 0.150391 17.5247 1.18106 19.6455 3.03027L19.8945 3.24707V2.08398C19.8945 1.61495 20.2751 1.23359 20.7441 1.2334C21.2133 1.2334 21.5947 1.61483 21.5947 2.08398V5.37988C21.5945 5.84886 21.2132 6.22949 20.7441 6.22949H17.4629C16.9939 6.22949 16.6125 5.84886 16.6123 5.37988C16.6123 4.91073 16.9937 4.5293 17.4629 4.5293H18.7842L18.4766 4.26562C16.6695 2.71395 14.377 1.84961 11.9375 1.84961C6.37456 1.84961 1.84961 6.39523 1.84961 11.9805C1.84936 12.4494 1.469 12.8301 1 12.8301C0.530999 12.8301 0.150645 12.4494 0.150391 11.9805C0.150391 5.4573 5.43835 0.150391 11.9375 0.150391Z" fill="#E84144" stroke="white" stroke-width="0.3"/>
</svg>
