<svg width="125" height="149" viewBox="0 0 125 149" fill="none" xmlns="http://www.w3.org/2000/svg">
    <g clip-path="url(#clip0_69_1216)">
        <path d="M119.422 69.9798C122.036 67.9268 124.999 65.5974 125 62.0992C125.002 58.6009 122.041 56.2673 119.423 54.206C118.714 53.6472 116.555 51.9474 116.426 51.4418C116.316 50.8864 117.71 48.3969 118.179 47.5584C119.775 44.7158 121.584 41.4906 120.268 38.3378C118.933 35.1354 115.321 34.1173 112.121 33.2148C111.235 32.9619 108.54 32.2034 108.229 31.7677C107.923 31.3017 108.251 28.4945 108.36 27.5717C108.738 24.3212 109.168 20.6359 106.72 18.2037C104.273 15.7715 100.562 16.1937 97.2603 16.5687C96.3369 16.6732 93.5262 16.9901 93.0755 16.7002C92.6223 16.38 91.8568 13.6908 91.604 12.805C90.701 9.64051 89.6783 6.05376 86.4577 4.72643C83.2845 3.41932 80.035 5.20932 77.1665 6.792C74.9498 8.01483 73.6505 8.59295 73.2814 8.53396C72.7467 8.39911 71.0341 6.24926 70.4706 5.54135C68.4024 2.94652 66.0576 0.00363935 62.5339 0.00195385C59.0103 0.000268348 56.6629 2.93978 54.5922 5.53376C54.0278 6.24083 52.3135 8.38987 51.7992 8.51881C51.2451 8.61572 48.7602 7.25467 47.8954 6.77768C45.0303 5.19246 41.785 3.39571 38.6077 4.70197C35.3828 6.02677 34.3593 9.61184 33.4512 12.7814C33.1966 13.6638 32.4328 16.3505 31.9915 16.6581C31.5247 16.9598 28.7013 16.6353 27.7618 16.5283C24.4885 16.1533 20.779 15.7285 18.3315 18.1573C15.8839 20.5861 16.3066 24.2715 16.6825 27.5245C16.7886 28.4515 17.1128 31.2562 16.8166 31.7062C16.4958 32.1563 13.7878 32.9173 12.895 33.1676C9.70824 34.0643 6.09634 35.0798 4.76055 38.2771C3.44089 41.4307 5.24599 44.6559 6.84401 47.5112C7.30229 48.332 8.70003 50.8291 8.5948 51.3625C8.45986 51.8918 6.30342 53.5874 5.58121 54.1537C2.96734 56.2075 0.00465826 58.536 0.00296093 62.0351C0.00126361 65.5342 2.96054 67.8644 5.57272 69.9216C6.28475 70.482 8.44883 72.1852 8.57783 72.6917C8.689 73.2488 7.28871 75.745 6.82534 76.5726C5.22816 79.4169 3.41967 82.6404 4.73509 85.7957C6.07088 88.9981 9.68108 90.0162 12.8678 90.9154C13.758 91.1682 16.4636 91.9267 16.7767 92.3657C17.0805 92.8284 16.7547 95.6339 16.646 96.5626C16.2675 99.814 15.8381 103.499 18.2865 105.931C20.7349 108.362 24.4444 107.941 27.7194 107.569C28.6486 107.462 31.473 107.139 31.9304 107.434C32.3827 107.754 33.1491 110.439 33.402 111.327C34.3041 114.491 35.3267 118.079 38.5483 119.407C41.7265 120.719 44.9726 118.925 47.8784 117.32C48.6957 116.869 51.1823 115.498 51.7246 115.6C52.2601 115.734 53.9718 117.885 54.5362 118.592C56.6035 121.188 58.9492 124.129 62.472 124.131C65.9948 124.132 68.343 121.194 70.4138 118.6C70.9781 117.893 72.6924 115.744 73.2025 115.617C73.7643 115.5 76.2856 116.899 77.1063 117.357C79.9705 118.942 83.2166 120.739 86.3966 119.432C89.6215 118.106 90.645 114.521 91.5522 111.351C91.8068 110.469 92.5706 107.783 93.011 107.475C93.4812 107.17 96.3089 107.496 97.2382 107.604C100.509 107.982 104.218 108.41 106.671 105.976C109.124 103.542 108.696 99.8612 108.319 96.6014C108.213 95.6803 107.895 92.8747 108.184 92.4272C108.508 91.9747 111.216 91.2162 112.108 90.9659C115.294 90.0701 118.905 89.0537 120.243 85.8547C121.562 82.7028 119.757 79.4776 118.156 76.6173C117.698 75.7973 116.302 73.3036 116.408 72.771C116.543 72.2383 118.71 70.5377 119.422 69.9798ZM108.698 61.875C108.693 70.9484 105.979 79.8167 100.899 87.3585C95.8192 94.9003 88.6012 100.777 80.1579 104.245C71.7147 107.713 62.4254 108.617 53.4648 106.842C44.5042 105.068 36.2748 100.694 29.8171 94.2754C23.3595 87.8563 18.9636 79.6799 17.1855 70.7799C15.4074 61.88 16.3269 52.6563 19.8277 44.2753C23.3285 35.8943 29.2533 28.7323 36.853 23.6952C44.4527 18.658 53.3859 15.9718 62.5229 15.9763C74.7706 15.9966 86.5101 20.8401 95.1664 29.4443C103.823 38.0485 108.689 49.7109 108.698 61.8733V61.875Z" fill="#E84144"/>
        <path d="M38.9026 148.711L60.3092 102.31L28.9936 86.6479L7.59636 133.027L26.8261 132.12L38.9026 148.711Z" fill="#E84144"/>
        <path d="M8.16835 133.315L29.2745 87.5077L59.4401 102.593L38.3229 148.423L39.4746 149L61.1723 102.025L28.7059 85.7876L7.02011 132.739L8.16835 133.315Z" fill="white"/>
        <path d="M39.2463 106.603L39.1224 113.558L44.822 117.603L38.126 119.634L36.0146 126.266L31.9979 120.568L24.993 120.623L29.2092 115.068L26.9916 108.469L33.6112 110.735L39.2463 106.603Z" fill="white"/>
        <path d="M86.0618 148.711L64.6552 102.31L95.9707 86.6479L117.365 133.027L98.1356 132.12L86.0618 148.711Z" fill="#E84144"/>
        <path d="M116.792 133.315L95.6864 87.5086L65.5208 102.594L86.638 148.423L85.4864 149.001L63.7887 102.026L96.2584 85.7886L117.943 132.74L116.792 133.315Z" fill="white"/>
        <path d="M85.7172 106.603L85.8411 113.558L80.1415 117.603L86.8408 119.636L88.9523 126.269L92.969 120.57L99.9739 120.625L95.7577 115.07L97.9753 108.471L91.3557 110.737L85.7172 106.603Z" fill="white"/>
        <path d="M72.0366 104.283C95.6485 99.0457 110.514 75.7922 105.24 52.3447C99.9664 28.8972 76.5498 14.1349 52.9379 19.3721C29.326 24.6094 14.4602 47.8629 19.7341 71.3104C25.0081 94.7579 48.4247 109.52 72.0366 104.283Z" fill="#E84144"/>
        <path d="M62.4156 105.89C50.7799 105.882 39.6126 101.338 31.3163 93.2363C23.02 85.1347 18.2578 74.1229 18.0543 62.57C17.8509 51.0172 22.2224 39.8467 30.2284 31.462C38.2343 23.0773 49.2348 18.1485 60.863 17.7361C72.4913 17.3237 83.8178 21.4607 92.4057 29.2569C100.994 37.053 106.156 47.8854 106.783 59.4232C107.41 70.961 103.451 82.2822 95.7583 90.9508C88.0651 99.6195 77.2526 104.943 65.6473 105.775C64.5672 105.852 63.49 105.891 62.4156 105.89ZM62.5496 18.8862C61.5024 18.8862 60.4523 18.9236 59.3994 18.9983C53.7355 19.4003 48.2068 20.9062 43.1289 23.43C38.051 25.9538 33.5234 29.4461 29.8047 33.7075C22.2943 42.3138 18.5344 53.5302 19.352 64.8894C20.1696 76.2486 25.4978 86.82 34.1644 94.2781C42.831 101.736 54.1261 105.47 65.5649 104.658C76.7313 103.865 87.1527 98.8016 94.6369 90.5341C102.121 82.2666 106.085 71.4389 105.694 60.3287C105.304 49.2184 100.589 38.6916 92.5427 30.9625C84.4961 23.2334 73.7446 18.9044 62.5496 18.8862Z" fill="white"/>
        <path d="M58.2416 51.5015L51.4467 71.4897H46.8256L40.0443 51.5015H44.3236L48.0834 63.396C48.1472 63.5965 48.252 63.9748 48.3979 64.5308C48.5437 65.0776 48.6895 65.661 48.8354 66.2808C48.9903 66.8914 49.0951 67.3973 49.1498 67.7983C49.2045 67.3973 49.3002 66.8914 49.4369 66.2808C49.5828 65.6701 49.724 65.0913 49.8608 64.5444C50.0066 63.9884 50.1114 63.6056 50.1752 63.396L53.9623 51.5015H58.2416ZM60.1709 71.4897V51.5015H64.4092V71.4897H60.1709ZM75.2252 51.5015C77.8046 51.5015 79.6868 52.0575 80.8717 53.1694C82.0566 54.2723 82.649 55.7944 82.649 57.7358C82.649 58.6108 82.5169 59.4494 82.2525 60.2515C81.9882 61.0444 81.5553 61.7508 80.9537 62.3706C80.3613 62.9904 79.5683 63.4826 78.5748 63.8472C77.5813 64.2026 76.3554 64.3804 74.8971 64.3804H73.0787V71.4897H68.8404V51.5015H75.2252ZM75.0065 54.9741H73.0787V60.9077H74.4733C75.2662 60.9077 75.9544 60.8029 76.5377 60.5933C77.121 60.3836 77.5722 60.0555 77.8912 59.6089C78.2102 59.1623 78.3697 58.5881 78.3697 57.8862C78.3697 56.9019 78.0963 56.1727 77.5494 55.6987C77.0025 55.2157 76.1549 54.9741 75.0065 54.9741Z" fill="white"/>
    </g>
    <defs>
        <clipPath id="clip0_69_1216">
            <rect width="125" height="149" fill="white"/>
        </clipPath>
    </defs>
</svg>
