<svg width="33" height="27" viewBox="0 0 33 27" fill="none" xmlns="http://www.w3.org/2000/svg">
    <path d="M32.4421 2.67554L25.8712 0.0471579C25.7143 -0.0157193 25.5392 -0.0157193 25.3823 0.0471579L18.8113 2.67554C18.6895 2.72436 18.5851 2.80853 18.5116 2.91721C18.438 3.02589 18.3987 3.1541 18.3987 3.28532V10.0771C18.4021 11.325 18.7268 12.551 19.3416 13.637C19.9564 14.723 20.8406 15.6323 21.9089 16.2774L25.289 18.3052C25.391 18.3664 25.5078 18.3987 25.6267 18.3987C25.7457 18.3987 25.8624 18.3664 25.9645 18.3052L28.9122 16.5363V23.8958C28.9118 24.1815 28.7982 24.4554 28.5962 24.6574C28.3942 24.8594 28.1203 24.9731 27.8346 24.9734H2.39183C2.10613 24.9731 1.83223 24.8594 1.63021 24.6574C1.42819 24.4554 1.31454 24.1815 1.31419 23.8958V9.19918H16.4274C16.6017 9.19918 16.7688 9.12995 16.892 9.00672C17.0152 8.88349 17.0845 8.71636 17.0845 8.54209C17.0845 8.36781 17.0152 8.20068 16.892 8.07745C16.7688 7.95422 16.6017 7.88499 16.4274 7.88499H1.31419V6.33425C1.31454 6.04855 1.42819 5.77465 1.63021 5.57263C1.83223 5.37061 2.10613 5.25696 2.39183 5.25661H16.4274C16.6017 5.25661 16.7688 5.18738 16.892 5.06415C17.0152 4.94092 17.0845 4.77379 17.0845 4.59951C17.0845 4.42524 17.0152 4.25811 16.892 4.13488C16.7688 4.01165 16.6017 3.94242 16.4274 3.94242H2.39183C1.75758 3.94277 1.14941 4.19487 0.700935 4.64335C0.252455 5.09183 0.000348199 5.7 0 6.33425V23.8918C0.000348199 24.5261 0.252455 25.1342 0.700935 25.5827C1.14941 26.0312 1.75758 26.2833 2.39183 26.2837H27.8346C28.4688 26.2833 29.077 26.0312 29.5255 25.5827C29.9739 25.1342 30.226 24.5261 30.2264 23.8918V15.6387C31.0449 14.96 31.7046 14.11 32.1587 13.1486C32.6129 12.1871 32.8505 11.1377 32.8548 10.0744V3.28532C32.8547 3.1541 32.8154 3.02589 32.7419 2.91721C32.6683 2.80853 32.5639 2.72436 32.4421 2.67554ZM31.5406 10.0771C31.5379 11.0982 31.2721 12.1014 30.7689 12.9899C30.2657 13.8785 29.5421 14.6223 28.6678 15.1498L25.6267 16.9752L22.5857 15.1498C21.7114 14.6223 20.9877 13.8785 20.4845 12.9899C19.9813 12.1014 19.7155 11.0982 19.7129 10.0771V3.72952L25.6267 1.36398L31.5406 3.72952V10.0771Z" fill="#E84144"/>
    <path d="M23.4636 8.18992C23.4025 8.12883 23.3301 8.08035 23.2504 8.04725C23.1706 8.01415 23.0851 7.99709 22.9988 7.99703C22.9125 7.99697 22.827 8.01391 22.7472 8.0469C22.6674 8.07988 22.5949 8.12826 22.5338 8.18926C22.4727 8.25027 22.4242 8.32272 22.3911 8.40246C22.358 8.4822 22.3409 8.56769 22.3409 8.65402C22.3408 8.74036 22.3578 8.82587 22.3907 8.90566C22.4237 8.98545 22.4721 9.05796 22.5331 9.11906L24.2862 10.8709C24.4095 10.9941 24.5766 11.0633 24.7508 11.0633C24.925 11.0633 25.0921 10.9941 25.2154 10.8709L28.7203 7.36592C28.8435 7.24254 28.9127 7.07526 28.9126 6.90089C28.9124 6.72652 28.843 6.55935 28.7197 6.43613C28.5963 6.31292 28.429 6.24377 28.2546 6.2439C28.0803 6.24402 27.9131 6.31341 27.7899 6.43679L24.7501 9.47783L23.4636 8.18992ZM4.59966 21.0269C4.42539 21.0269 4.25825 21.0962 4.13502 21.2194C4.0118 21.3426 3.94257 21.5098 3.94257 21.684C3.94257 21.8583 4.0118 22.0254 4.13502 22.1487C4.25825 22.2719 4.42539 22.3411 4.59966 22.3411H9.85642C10.0307 22.3411 10.1978 22.2719 10.3211 22.1487C10.4443 22.0254 10.5135 21.8583 10.5135 21.684C10.5135 21.5098 10.4443 21.3426 10.3211 21.2194C10.1978 21.0962 10.0307 21.0269 9.85642 21.0269H4.59966Z" fill="#E84144"/>
</svg>
