<svg width="27" height="22" viewBox="0 0 27 22" fill="none" xmlns="http://www.w3.org/2000/svg">
    <path d="M4.72507 0H0.675082C0.302357 0 0 0.302294 0 0.675082V4.72507C0 5.09779 0.302294 5.40015 0.675082 5.40015C1.04787 5.40015 1.34991 5.09786 1.34991 4.72507V1.35016H4.72507C5.0978 1.35016 5.3999 1.04787 5.3999 0.675082C5.3999 0.302294 5.09786 0 4.72507 0ZM4.72507 20.2499H1.34991V16.875C1.34991 16.5023 1.04787 16.1999 0.675082 16.1999C0.302294 16.1999 0 16.5022 0 16.875V20.925C0 21.2977 0.302294 21.6001 0.675082 21.6001H4.72507C5.0978 21.6001 5.3999 21.2978 5.3999 20.925C5.3999 20.5522 5.09786 20.2499 4.72507 20.2499ZM26.3249 0H22.2749C21.9022 0 21.5998 0.302294 21.5998 0.675082C21.5998 1.04787 21.9021 1.35016 22.2749 1.35016H25.6498V4.72507C25.6498 5.09779 25.9521 5.40015 26.3249 5.40015C26.6977 5.40015 27 5.09786 27 4.72507V0.675082C27 0.302357 26.6977 0 26.3249 0ZM26.3249 16.1999C25.9522 16.1999 25.6498 16.5022 25.6498 16.875V20.2499H22.2749C21.9022 20.2499 21.5998 20.5522 21.5998 20.925C21.5998 21.2978 21.9021 21.6001 22.2749 21.6001H26.3249C26.6976 21.6001 27 21.2978 27 20.925V16.875C27 16.5023 26.6977 16.1999 26.3249 16.1999ZM4.72507 4.04999C4.35234 4.04999 4.04999 4.35228 4.04999 4.72507V16.875C4.04999 17.2478 4.35228 17.5501 4.72507 17.5501C5.09786 17.5501 5.3999 17.2478 5.3999 16.875V4.72507C5.3999 4.35234 5.09786 4.04999 4.72507 4.04999ZM7.42489 4.04999H8.77506C9.14778 4.04999 9.44989 4.35228 9.44989 4.72507V16.875C9.44989 17.2478 9.14785 17.5501 8.77506 17.5501H7.42489C7.05217 17.5501 6.75006 17.2478 6.75006 16.875V4.72507C6.75006 4.35234 7.0521 4.04999 7.42489 4.04999ZM11.4749 4.04999C11.1022 4.04999 10.8001 4.35228 10.8001 4.72507V16.875C10.8001 17.2478 11.1021 17.5501 11.4749 17.5501C11.8477 17.5501 12.15 17.2478 12.15 16.875V4.72507C12.15 4.35234 11.8477 4.04999 11.4749 4.04999ZM14.175 4.04999H15.5249C15.8976 4.04999 16.1999 4.35228 16.1999 4.72507V16.875C16.1999 17.2478 15.8977 17.5501 15.5249 17.5501H14.175C13.8022 17.5501 13.4999 17.2478 13.4999 16.875V4.72507C13.4999 4.35234 13.8022 4.04999 14.175 4.04999ZM18.2249 4.04999C17.8522 4.04999 17.5499 4.35228 17.5499 4.72507V16.875C17.5499 17.2478 17.8522 17.5501 18.2249 17.5501C18.5977 17.5501 18.9 17.2478 18.9 16.875V4.72507C18.9 4.35234 18.5977 4.04999 18.2249 4.04999ZM20.925 4.04999H22.2749C22.6477 4.04999 22.95 4.35228 22.95 4.72507V16.875C22.95 17.2478 22.6477 17.5501 22.2749 17.5501H20.925C20.5523 17.5501 20.2499 17.2478 20.2499 16.875V4.72507C20.2499 4.35234 20.5522 4.04999 20.925 4.04999Z" fill="#1E1E1E"/>
</svg>
