<svg width="21" height="21" viewBox="0 0 21 21" fill="none" xmlns="http://www.w3.org/2000/svg">
    <path d="M19.4567 3.59729C19.1772 3.3173 18.7237 3.31681 18.4442 3.5961L9.85362 12.164L6.75417 8.79768C6.48635 8.50697 6.03354 8.48811 5.74234 8.7559C5.45137 9.02371 5.43274 9.47675 5.70056 9.76772L9.30484 13.6821C9.37014 13.753 9.44911 13.8101 9.53702 13.8497C9.62492 13.8894 9.71994 13.9109 9.81636 13.9129C9.82159 13.9131 9.82664 13.9131 9.83165 13.9131C10.0211 13.913 10.2029 13.8379 10.3372 13.7042L19.4553 4.61004C19.7355 4.33079 19.736 3.87728 19.4567 3.59729Z" fill="#1E1E1E" stroke="#C3C3C3" stroke-width="0.3"/>
    <path d="M19.2839 9.7839C18.8884 9.7839 18.5678 10.1045 18.5678 10.5C18.5678 14.9488 14.9488 18.5678 10.5 18.5678C6.05148 18.5678 2.43216 14.9488 2.43216 10.5C2.43216 6.05148 6.05148 2.43216 10.5 2.43216C10.8955 2.43216 11.2161 2.11161 11.2161 1.7161C11.2161 1.32055 10.8955 1 10.5 1C5.26164 1 1 5.26164 1 10.5C1 15.7381 5.26164 20 10.5 20C15.7381 20 20 15.7381 20 10.5C20 10.1045 19.6794 9.7839 19.2839 9.7839Z" fill="#1E1E1E" stroke="#C3C3C3" stroke-width="0.3"/>
</svg>
