<svg width="17" height="17" viewBox="0 0 17 17" fill="none" xmlns="http://www.w3.org/2000/svg">
    <path d="M14.8751 2.83333H12.6792C12.5148 2.03392 12.0799 1.31562 11.4476 0.799509C10.8154 0.283397 10.0246 0.00103029 9.20842 0L7.79175 0C6.9756 0.00103029 6.18477 0.283397 5.55253 0.799509C4.92029 1.31562 4.48532 2.03392 4.32091 2.83333H2.12508C1.93722 2.83333 1.75705 2.90796 1.62421 3.0408C1.49138 3.17364 1.41675 3.3538 1.41675 3.54167C1.41675 3.72953 1.49138 3.9097 1.62421 4.04253C1.75705 4.17537 1.93722 4.25 2.12508 4.25H2.83341V13.4583C2.83454 14.3973 3.20804 15.2975 3.87199 15.9614C4.53593 16.6254 5.43612 16.9989 6.37508 17H10.6251C11.564 16.9989 12.4642 16.6254 13.1282 15.9614C13.7921 15.2975 14.1656 14.3973 14.1667 13.4583V4.25H14.8751C15.0629 4.25 15.2431 4.17537 15.3759 4.04253C15.5088 3.9097 15.5834 3.72953 15.5834 3.54167C15.5834 3.3538 15.5088 3.17364 15.3759 3.0408C15.2431 2.90796 15.0629 2.83333 14.8751 2.83333ZM7.79175 1.41667H9.20842C9.64778 1.4172 10.0762 1.55364 10.435 1.80727C10.7937 2.0609 11.0653 2.41931 11.2123 2.83333H5.78787C5.93491 2.41931 6.20643 2.0609 6.56519 1.80727C6.92395 1.55364 7.35239 1.4172 7.79175 1.41667ZM12.7501 13.4583C12.7501 14.0219 12.5262 14.5624 12.1277 14.9609C11.7292 15.3595 11.1887 15.5833 10.6251 15.5833H6.37508C5.8115 15.5833 5.27099 15.3595 4.87248 14.9609C4.47396 14.5624 4.25008 14.0219 4.25008 13.4583V4.25H12.7501V13.4583Z" fill="#C71919"/>
    <path d="M7.08333 12.7502C7.2712 12.7502 7.45136 12.6755 7.5842 12.5427C7.71704 12.4099 7.79167 12.2297 7.79167 12.0418V7.79183C7.79167 7.60397 7.71704 7.4238 7.5842 7.29096C7.45136 7.15812 7.2712 7.0835 7.08333 7.0835C6.89547 7.0835 6.7153 7.15812 6.58247 7.29096C6.44963 7.4238 6.375 7.60397 6.375 7.79183V12.0418C6.375 12.2297 6.44963 12.4099 6.58247 12.5427C6.7153 12.6755 6.89547 12.7502 7.08333 12.7502Z" fill="#C71919"/>
    <path d="M9.91659 12.7502C10.1044 12.7502 10.2846 12.6755 10.4175 12.5427C10.5503 12.4099 10.6249 12.2297 10.6249 12.0418V7.79183C10.6249 7.60397 10.5503 7.4238 10.4175 7.29096C10.2846 7.15812 10.1044 7.0835 9.91659 7.0835C9.72872 7.0835 9.54856 7.15812 9.41572 7.29096C9.28288 7.4238 9.20825 7.60397 9.20825 7.79183V12.0418C9.20825 12.2297 9.28288 12.4099 9.41572 12.5427C9.54856 12.6755 9.72872 12.7502 9.91659 12.7502Z" fill="#C71919"/>
</svg>
