<svg width="43" height="23" viewBox="0 0 43 23" fill="none" xmlns="http://www.w3.org/2000/svg">
    <path d="M36.3424 22.8629C35.6267 22.8634 34.9269 22.6517 34.3315 22.2544C33.7361 21.8572 33.272 21.2923 32.9977 20.6312C32.7234 19.9701 32.6514 19.2425 32.7907 18.5404C32.93 17.8384 33.2744 17.1934 33.7803 16.6872C34.2863 16.1809 34.931 15.836 35.6329 15.6962C36.3348 15.5564 37.0625 15.6279 37.7238 15.9016C38.3851 16.1754 38.9503 16.6392 39.348 17.2342C39.7457 17.8293 39.958 18.529 39.958 19.2447C39.9575 20.2037 39.5765 21.1233 38.8986 21.8017C38.2208 22.4801 37.3014 22.8617 36.3424 22.8629ZM36.3424 16.9463C35.8877 16.9458 35.4431 17.0802 35.0648 17.3324C34.6865 17.5846 34.3915 17.9434 34.2171 18.3633C34.0428 18.7832 33.9969 19.2454 34.0852 19.6915C34.1736 20.1375 34.3923 20.5472 34.7136 20.8689C35.035 21.1906 35.4445 21.4098 35.8904 21.4987C36.3363 21.5876 36.7986 21.5422 37.2187 21.3683C37.6388 21.1945 37.9979 20.8999 38.2506 20.5219C38.5032 20.1438 38.6381 19.6994 38.6381 19.2447C38.6379 18.6357 38.396 18.0516 37.9656 17.6207C37.5352 17.1898 36.9514 16.9473 36.3424 16.9463ZM17.2754 22.8629C16.5597 22.8636 15.8598 22.652 15.2643 22.2548C14.6688 21.8577 14.2045 21.2928 13.9301 20.6318C13.6557 19.9707 13.5836 19.2431 13.7228 18.541C13.862 17.8389 14.2063 17.1938 14.7122 16.6875C15.2181 16.1811 15.8628 15.8361 16.5647 15.6962C17.2667 15.5564 17.9944 15.6278 18.6557 15.9016C19.3171 16.1753 19.8824 16.6391 20.2801 17.2341C20.6779 17.8292 20.8901 18.5289 20.8901 19.2447C20.8894 20.2035 20.5085 21.1228 19.8309 21.8011C19.1532 22.4794 18.2342 22.8613 17.2754 22.8629ZM17.2754 16.9463C16.8207 16.9456 16.376 17.0799 15.9976 17.332C15.6192 17.5841 15.324 17.9428 15.1495 18.3627C14.975 18.7826 14.929 19.2448 15.0173 19.6909C15.1056 20.137 15.3242 20.5468 15.6455 20.8686C15.9668 21.1904 16.3763 21.4096 16.8222 21.4986C17.2682 21.5876 17.7305 21.5423 18.1506 21.3684C18.5708 21.1946 18.93 20.9 19.1827 20.5219C19.4354 20.1439 19.5703 19.6994 19.5703 19.2447C19.5698 18.6359 19.328 18.0521 18.8978 17.6213C18.4677 17.1904 17.8842 16.9477 17.2754 16.9463Z" fill="#E84144"/>
    <path d="M41.1027 19.9047H39.298C39.123 19.9047 38.9552 19.8351 38.8314 19.7114C38.7076 19.5876 38.6381 19.4198 38.6381 19.2447C38.6381 19.0697 38.7076 18.9018 38.8314 18.7781C38.9552 18.6543 39.123 18.5848 39.298 18.5848H40.9162V15.0854C40.9158 14.6122 40.7946 14.147 40.5642 13.7338L36.9918 7.32887C36.9613 7.27421 36.9167 7.22868 36.8627 7.19697C36.8087 7.16526 36.7473 7.14853 36.6847 7.14849H31.8161V18.5874H33.3876C33.5627 18.5874 33.7305 18.657 33.8543 18.7807C33.978 18.9045 34.0476 19.0723 34.0476 19.2474C34.0476 19.4224 33.978 19.5903 33.8543 19.714C33.7305 19.8378 33.5627 19.9073 33.3876 19.9073H31.1562C30.9811 19.9073 30.8133 19.8378 30.6895 19.714C30.5657 19.5903 30.4962 19.4224 30.4962 19.2474V6.48855C30.4962 6.31353 30.5657 6.14567 30.6895 6.0219C30.8133 5.89814 30.9811 5.82861 31.1562 5.82861H36.6847C36.9824 5.82847 37.2748 5.90783 37.5316 6.0585C37.7883 6.20917 38.0002 6.42568 38.1453 6.68565L41.7169 13.0915C42.0565 13.7012 42.2349 14.3875 42.2352 15.0854V18.7722C42.2347 19.0724 42.1153 19.3602 41.903 19.5725C41.6907 19.7847 41.403 19.9042 41.1027 19.9047ZM14.3198 19.9047H7.9923C7.81727 19.9047 7.64941 19.8351 7.52565 19.7114C7.40189 19.5876 7.33236 19.4198 7.33236 19.2447V14.1694C7.33236 13.9943 7.40189 13.8265 7.52565 13.7027C7.64941 13.579 7.81727 13.5094 7.9923 13.5094C8.16732 13.5094 8.33518 13.579 8.45895 13.7027C8.58271 13.8265 8.65224 13.9943 8.65224 14.1694V18.5848H14.3198C14.4948 18.5848 14.6627 18.6543 14.7864 18.7781C14.9102 18.9018 14.9797 19.0697 14.9797 19.2447C14.9797 19.4198 14.9102 19.5876 14.7864 19.7114C14.6627 19.8351 14.4948 19.9047 14.3198 19.9047ZM7.9923 11.8279C7.81727 11.8279 7.64941 11.7584 7.52565 11.6346C7.40189 11.5108 7.33236 11.343 7.33236 11.168V6.73669C7.33236 6.56166 7.40189 6.3938 7.52565 6.27004C7.64941 6.14628 7.81727 6.07675 7.9923 6.07675C8.16732 6.07675 8.33518 6.14628 8.45895 6.27004C8.58271 6.3938 8.65224 6.56166 8.65224 6.73669V11.1706C8.65154 11.3452 8.5817 11.5123 8.45802 11.6355C8.33433 11.7587 8.16687 11.8279 7.9923 11.8279Z" fill="#E84144"/>
    <path d="M31.1562 19.9046H20.2302C20.0552 19.9046 19.8873 19.8351 19.7636 19.7113C19.6398 19.5876 19.5703 19.4197 19.5703 19.2447C19.5703 19.0697 19.6398 18.9018 19.7636 18.778C19.8873 18.6543 20.0552 18.5848 20.2302 18.5848H30.4962V1.31988H8.65224V4.03795C8.65224 4.21297 8.58271 4.38083 8.45895 4.50459C8.33519 4.62836 8.16733 4.69788 7.9923 4.69788C7.81727 4.69788 7.64942 4.62836 7.52565 4.50459C7.40189 4.38083 7.33236 4.21297 7.33236 4.03795V1.19845C7.33283 0.880591 7.45936 0.575898 7.68421 0.351221C7.90905 0.126544 8.21383 0.000232692 8.53169 0H30.6176C30.9354 0.000465503 31.2399 0.12688 31.4646 0.351532C31.6892 0.576183 31.8156 0.880743 31.8161 1.19845V19.2447C31.8161 19.4197 31.7466 19.5876 31.6228 19.7113C31.499 19.8351 31.3312 19.9046 31.1562 19.9046ZM10.6013 14.8293H2.22532C2.05029 14.8293 1.88243 14.7597 1.75867 14.636C1.63491 14.5122 1.56538 14.3444 1.56538 14.1693C1.56538 13.9943 1.63491 13.8264 1.75867 13.7027C1.88243 13.5789 2.05029 13.5094 2.22532 13.5094H10.6013C10.7763 13.5094 10.9441 13.5789 11.0679 13.7027C11.1917 13.8264 11.2612 13.9943 11.2612 14.1693C11.2612 14.3444 11.1917 14.5122 11.0679 14.636C10.9441 14.7597 10.7763 14.8293 10.6013 14.8293Z" fill="#E84144"/>
    <path d="M17.2754 11.8279H5.58748C5.41246 11.8279 5.2446 11.7584 5.12084 11.6346C4.99707 11.5109 4.92754 11.343 4.92754 11.168C4.92754 10.9929 4.99707 10.8251 5.12084 10.7013C5.2446 10.5776 5.41246 10.508 5.58748 10.508H17.2754C17.4505 10.508 17.6183 10.5776 17.7421 10.7013C17.8659 10.8251 17.9354 10.9929 17.9354 11.168C17.9354 11.343 17.8659 11.5109 17.7421 11.6346C17.6183 11.7584 17.4505 11.8279 17.2754 11.8279ZM5.22408 8.34343H0.659939C0.484912 8.34343 0.317054 8.2739 0.193292 8.15014C0.0695291 8.02638 0 7.85852 0 7.68349C0 7.50847 0.0695291 7.34061 0.193292 7.21685C0.317054 7.09308 0.484912 7.02355 0.659939 7.02355H5.22408C5.3991 7.02355 5.56696 7.09308 5.69072 7.21685C5.81449 7.34061 5.88402 7.50847 5.88402 7.68349C5.88402 7.85852 5.81449 8.02638 5.69072 8.15014C5.56696 8.2739 5.3991 8.34343 5.22408 8.34343ZM12.5424 4.69793H4.48582C4.3108 4.69793 4.14294 4.6284 4.01918 4.50464C3.89541 4.38087 3.82589 4.21302 3.82589 4.03799C3.82589 3.86296 3.89541 3.69511 4.01918 3.57134C4.14294 3.44758 4.3108 3.37805 4.48582 3.37805H12.5424C12.7174 3.37805 12.8852 3.44758 13.009 3.57134C13.1328 3.69511 13.2023 3.86296 13.2023 4.03799C13.2023 4.21302 13.1328 4.38087 13.009 4.50464C12.8852 4.6284 12.7174 4.69793 12.5424 4.69793Z" fill="#E84144"/>
</svg>
