<svg width="36" height="43" viewBox="0 0 36 43" fill="none" xmlns="http://www.w3.org/2000/svg">
    <g clip-path="url(#clip0_161_1530)">
        <path d="M18.0098 0.500488C18.3648 0.500687 18.6789 0.645374 18.9922 0.903809C19.3148 1.17004 19.6 1.52592 19.9043 1.90771C19.985 2.00909 20.1563 2.22311 20.3281 2.41846C20.4134 2.51543 20.5061 2.61669 20.5928 2.69873C20.6357 2.73934 20.6851 2.78201 20.7363 2.81982C20.7755 2.84872 20.8646 2.91307 20.9824 2.94287L21.0039 2.94775L21.0264 2.95166C21.1794 2.97607 21.3231 2.9325 21.3838 2.91357C21.4704 2.88654 21.5672 2.8468 21.6689 2.80127C21.8742 2.70941 22.142 2.57269 22.4658 2.39404C22.8878 2.16124 23.2825 1.94567 23.6758 1.82471C24.0579 1.70723 24.394 1.6932 24.709 1.82275V1.82373C25.0309 1.95641 25.2617 2.20544 25.4492 2.56006C25.6424 2.92547 25.7685 3.35894 25.9014 3.82471C25.9374 3.95093 26.0136 4.2199 26.0986 4.47021C26.1408 4.59422 26.1888 4.72495 26.2383 4.83545C26.2629 4.89025 26.2931 4.95066 26.3271 5.00635C26.353 5.04858 26.4142 5.1452 26.5176 5.21826L26.5352 5.22998C26.6448 5.30052 26.7611 5.32043 26.8076 5.32764C26.8716 5.33754 26.9383 5.34161 26.998 5.34326C27.1188 5.34658 27.2581 5.34095 27.3896 5.33252C27.5224 5.32401 27.6586 5.31123 27.7783 5.29932L28.0674 5.26807C28.5533 5.21287 29.0061 5.16356 29.4199 5.20166C29.822 5.23871 30.1395 5.35547 30.3828 5.59717C30.6258 5.8386 30.7425 6.15283 30.7793 6.54932C30.8077 6.85573 30.7868 7.1833 30.751 7.52979L30.7109 7.88232C30.6954 8.01453 30.663 8.29466 30.6455 8.56104C30.6368 8.69318 30.631 8.8341 30.6348 8.95654C30.6366 9.01707 30.6407 9.08457 30.6514 9.1499C30.6594 9.19906 30.6805 9.31444 30.752 9.42334L30.7578 9.43115L30.7627 9.43896C30.8374 9.5437 30.9362 9.60522 30.9766 9.62939C31.0317 9.66237 31.0913 9.6905 31.1455 9.71436C31.2553 9.76262 31.3858 9.80958 31.5098 9.85107C31.7596 9.93471 32.0291 10.0107 32.1543 10.0464L32.1553 10.0474C32.6263 10.1802 33.0653 10.3057 33.4346 10.4985C33.7931 10.6859 34.0431 10.9155 34.1758 11.2339C34.3053 11.5444 34.2922 11.8754 34.1738 12.2534C34.0519 12.6427 33.8345 13.0334 33.5996 13.4517V13.4526C33.5329 13.572 33.3922 13.8225 33.2725 14.0649C33.2131 14.1852 33.1532 14.3143 33.1094 14.4302C33.0877 14.4875 33.066 14.5524 33.0508 14.6177C33.0393 14.6671 33.0147 14.7827 33.04 14.9116L33.0459 14.939C33.0768 15.0599 33.1443 15.1507 33.1719 15.187C33.2097 15.2369 33.2526 15.285 33.293 15.3267C33.3747 15.411 33.4753 15.5015 33.5723 15.5854C33.7679 15.7548 33.9836 15.9245 34.085 16.0044C34.4701 16.3076 34.8288 16.5927 35.0967 16.9136C35.3567 17.2251 35.5002 17.5352 35.5 17.8843C35.4998 18.2335 35.356 18.5439 35.0957 18.855C34.8278 19.1752 34.4694 19.4583 34.085 19.7603C33.9829 19.8402 33.7664 20.0104 33.5693 20.1812C33.4718 20.2657 33.3707 20.3578 33.2881 20.4438C33.2472 20.4865 33.2033 20.5352 33.165 20.5864C33.136 20.6254 33.0712 20.7162 33.041 20.8354L33.0381 20.8481L33.0352 20.8599C33.009 20.9914 33.0357 21.11 33.0469 21.1567C33.0623 21.2209 33.0839 21.2849 33.1055 21.3413C33.1492 21.4556 33.2094 21.5833 33.2686 21.7026C33.388 21.9435 33.5274 22.1931 33.5928 22.3101C33.8284 22.7312 34.0462 23.1232 34.168 23.5132C34.2862 23.8917 34.2987 24.2224 34.1689 24.5327C34.0358 24.851 33.7851 25.0802 33.4268 25.2671C33.0581 25.4594 32.6203 25.5845 32.1514 25.7163C32.0238 25.7521 31.7537 25.8283 31.502 25.9126C31.377 25.9544 31.2459 26.0021 31.1348 26.0513C31.0798 26.0756 31.0196 26.1045 30.9639 26.1382C30.9216 26.1637 30.8247 26.2248 30.751 26.3276L30.7373 26.3472C30.6661 26.4572 30.6468 26.5743 30.6396 26.6206C30.6298 26.6845 30.6256 26.7506 30.624 26.8101C30.6208 26.9306 30.6262 27.0703 30.6348 27.2017C30.6434 27.334 30.656 27.4699 30.668 27.5894L30.6992 27.8784C30.7547 28.3584 30.8047 28.8048 30.7666 29.2134C30.7296 29.6097 30.6129 29.9246 30.3691 30.1665C30.1251 30.4086 29.807 30.5244 29.4062 30.561C28.9938 30.5987 28.5437 30.5492 28.0625 30.4937C27.9294 30.4782 27.6471 30.4456 27.3789 30.4282C27.2459 30.4196 27.1043 30.4137 26.9814 30.4175C26.9207 30.4193 26.8533 30.4236 26.7881 30.4341C26.739 30.442 26.6242 30.4624 26.5156 30.5327L26.5078 30.5376L26.5 30.5435C26.3946 30.6175 26.3332 30.7158 26.3086 30.7563C26.2751 30.8116 26.2458 30.871 26.2217 30.9253C26.1729 31.035 26.1258 31.165 26.084 31.2886C25.9997 31.5375 25.9227 31.8055 25.8867 31.9302V31.9312C25.7531 32.3979 25.6272 32.8323 25.4336 33.1978C25.2458 33.5523 25.0149 33.8015 24.6924 33.9341C24.3763 34.0641 24.0402 34.0501 23.6582 33.9321C23.265 33.8107 22.8699 33.5942 22.4482 33.3608C22.3294 33.2946 22.0794 33.1555 21.8359 33.0366C21.7147 32.9774 21.584 32.918 21.4668 32.8745C21.4088 32.853 21.3434 32.8308 21.2773 32.8159C21.2271 32.8046 21.1103 32.7811 20.9805 32.8081L20.9707 32.8101L20.9609 32.813C20.8406 32.8431 20.7497 32.9086 20.7129 32.936C20.6626 32.9736 20.6144 33.0169 20.5723 33.0571C20.4872 33.1384 20.3952 33.238 20.3105 33.3345C20.1398 33.529 19.9692 33.7435 19.8887 33.8442C19.584 34.2259 19.2976 34.5813 18.9746 34.8472C18.6611 35.1052 18.3472 35.2497 17.9922 35.2495C17.6372 35.2493 17.323 35.1045 17.0098 34.8462C16.6873 34.5801 16.4016 34.2249 16.0977 33.8433V33.8423C16.0173 33.7416 15.8458 33.527 15.6738 33.3315C15.5886 33.2346 15.4958 33.1343 15.4092 33.0522C15.3662 33.0115 15.3171 32.9681 15.2656 32.9302C15.2263 32.9012 15.1366 32.8378 15.0186 32.8081L15.0039 32.8042L14.9883 32.8013L14.8965 32.7915C14.8082 32.789 14.7349 32.8055 14.6992 32.814C14.6353 32.8291 14.5713 32.8503 14.5146 32.8716C14.4003 32.9146 14.2726 32.9735 14.1533 33.0317C13.9131 33.149 13.6654 33.2851 13.5479 33.3501C13.12 33.5864 12.7219 33.8045 12.3271 33.9263C11.9441 34.0444 11.6085 34.0575 11.293 33.9272C10.9709 33.7945 10.7403 33.5446 10.5527 33.1899C10.3595 32.8245 10.2334 32.391 10.1006 31.9253C10.0644 31.7981 9.98848 31.5291 9.90332 31.2788C9.86113 31.1548 9.81225 31.025 9.7627 30.9146C9.73812 30.8598 9.70886 30.7993 9.6748 30.7437C9.64896 30.7015 9.58767 30.6057 9.48438 30.5327L9.4668 30.521L9.38477 30.4771C9.3038 30.4414 9.2299 30.4289 9.19434 30.4233C9.12989 30.4133 9.06309 30.4084 9.00293 30.4067C8.88125 30.4034 8.74079 30.4098 8.6084 30.4185C8.34118 30.4358 8.05899 30.4676 7.92578 30.4829C7.44431 30.5377 6.99438 30.5865 6.58203 30.5483C6.1808 30.5112 5.86283 30.3948 5.61914 30.1528C5.37625 29.9116 5.25947 29.5979 5.22266 29.2017C5.18475 28.793 5.23528 28.3465 5.29102 27.8677C5.30659 27.7345 5.33908 27.4542 5.35645 27.188C5.36506 27.0559 5.37092 26.9156 5.36719 26.7935C5.36534 26.733 5.36119 26.6653 5.35059 26.6001C5.34265 26.5513 5.32163 26.4358 5.25 26.3267L5.24414 26.3188L5.23926 26.311L5.17969 26.2407C5.1185 26.1782 5.05499 26.1389 5.02441 26.1206C4.96906 26.0875 4.90896 26.0586 4.85449 26.0347C4.74428 25.9863 4.61351 25.9394 4.48926 25.8979C4.23857 25.8142 3.96867 25.7384 3.84277 25.7026H3.8418C3.3727 25.5703 2.93505 25.4441 2.56641 25.2515C2.20841 25.0643 1.95808 24.8347 1.8252 24.5161C1.69578 24.2053 1.70881 23.8744 1.82715 23.4966C1.94914 23.1072 2.16623 22.7161 2.40137 22.2974H2.40234C2.4684 22.1794 2.60851 21.9288 2.72852 21.686C2.78792 21.5659 2.84775 21.4368 2.8916 21.3208C2.91334 21.2633 2.93499 21.1979 2.9502 21.1323C2.96169 21.0827 2.98673 20.9668 2.96094 20.8374L2.95508 20.812L2.92676 20.7271C2.89355 20.6486 2.8498 20.5903 2.8291 20.563C2.79125 20.5131 2.74842 20.4651 2.70801 20.4233C2.62612 20.3388 2.52495 20.2477 2.42773 20.1636C2.23174 19.994 2.0158 19.8247 1.91406 19.7446C1.52965 19.4419 1.17189 19.1579 0.904297 18.8374C0.644528 18.5262 0.50092 18.216 0.500977 17.8667C0.501146 17.5174 0.645152 17.207 0.905273 16.896C1.17319 16.5757 1.53146 16.2919 1.91602 15.9897C2.01967 15.9085 2.23598 15.7385 2.43262 15.5679C2.5301 15.4833 2.63146 15.3911 2.71387 15.3052C2.75453 15.2628 2.79795 15.2144 2.83594 15.1636C2.86487 15.1248 2.92966 15.0344 2.95996 14.9155L2.96289 14.9028L2.96582 14.8892C2.99173 14.7578 2.96533 14.64 2.9541 14.5933C2.93866 14.529 2.9162 14.4652 2.89453 14.4087C2.85068 14.2943 2.79169 14.1659 2.73242 14.0464C2.61285 13.8053 2.47348 13.5559 2.4082 13.439H2.40723C2.17191 13.0185 1.95469 12.6267 1.83301 12.2368C1.7149 11.8584 1.70199 11.5271 1.83203 11.2163H1.83301C1.9658 10.8987 2.21593 10.6697 2.57422 10.4829C2.94295 10.2907 3.38063 10.1657 3.84961 10.0337L3.84863 10.0327C3.97648 9.99687 4.24705 9.92186 4.49902 9.8374C4.62392 9.79554 4.75519 9.74787 4.86621 9.69873C4.92111 9.67442 4.98137 9.64547 5.03711 9.61182C5.07899 9.5865 5.17608 9.52504 5.25 9.42139L5.25586 9.41357L5.26074 9.40576C5.33326 9.29547 5.35386 9.17844 5.36133 9.13135C5.37155 9.06677 5.37527 8.99982 5.37695 8.93994C5.38036 8.81894 5.37482 8.67974 5.36621 8.54834C5.34882 8.28325 5.31689 8.00284 5.30176 7.87061V7.86963L5.2627 7.51709C5.22722 7.17024 5.20655 6.84222 5.23535 6.53564C5.27263 6.1393 5.38901 5.82552 5.63184 5.58447C5.87515 5.34302 6.19271 5.22674 6.59375 5.18994C7.0063 5.15213 7.4568 5.20116 7.93848 5.25635V5.25732C8.07228 5.27257 8.35519 5.30451 8.62305 5.32178C8.75587 5.33033 8.89706 5.33618 9.01953 5.33252C9.08021 5.3307 9.14779 5.32633 9.21289 5.31592C9.26158 5.30813 9.37661 5.28757 9.48535 5.21729L9.49219 5.2124L9.5 5.20752C9.60572 5.13371 9.66754 5.03548 9.69238 4.99463C9.72605 4.93925 9.75509 4.87905 9.7793 4.82471C9.82819 4.71497 9.87612 4.58497 9.91797 4.46143C10.0023 4.21258 10.0783 3.94442 10.1143 3.81982V3.81885C10.248 3.35199 10.3747 2.91776 10.5684 2.55225C10.7562 2.19785 10.9871 1.94935 11.3096 1.81689C11.6252 1.68717 11.9608 1.70084 12.3428 1.81885C12.7358 1.9403 13.1301 2.15587 13.5518 2.38916L13.5527 2.39014C13.6774 2.45889 13.9283 2.59656 14.1709 2.71436C14.2913 2.77282 14.4202 2.83148 14.5352 2.87451C14.5921 2.89581 14.6559 2.91709 14.7197 2.93213C14.7683 2.94355 14.8803 2.96759 15.0049 2.9458L15.0225 2.94287L15.04 2.93799C15.16 2.90787 15.2509 2.84271 15.2881 2.81494C15.3385 2.77734 15.3865 2.73411 15.4287 2.69385C15.5141 2.61242 15.6056 2.51214 15.6904 2.41553C15.8614 2.22081 16.0326 2.00686 16.1133 1.90576C16.418 1.52404 16.7044 1.16872 17.0273 0.902832C17.3408 0.644768 17.6546 0.500318 18.0098 0.500488ZM18.0068 4.10107C15.2773 4.09976 12.6087 4.90261 10.3379 6.40771C8.06707 7.91285 6.29558 10.0528 5.24902 12.5581C4.20246 15.0636 3.92737 17.822 4.45898 20.4829C4.99063 23.1436 6.3055 25.587 8.23535 27.5054C10.1653 29.4237 12.6238 30.7311 15.3008 31.2612C17.9777 31.7914 20.7528 31.521 23.2754 30.4849C25.7979 29.4487 27.9552 27.693 29.4736 25.439C30.9921 23.1847 31.8033 20.5326 31.8047 17.8198V17.8188C31.802 14.1827 30.3475 10.6968 27.7607 8.12549C25.174 5.55425 21.6663 4.10721 18.0078 4.10107H18.0068Z" fill="#E84144" stroke="black"/>
        <path d="M11.2039 42.8289L17.369 29.4652L8.35016 24.9546L2.18774 38.3118L7.72592 38.0506L11.2039 42.8289Z" fill="#E84144"/>
        <path d="M2.35248 38.3945L8.43106 25.2019L17.1188 29.5465L11.037 42.7454L11.3687 42.9117L17.6176 29.3829L8.2673 24.7065L2.02179 38.2285L2.35248 38.3945Z" fill="white"/>
        <path d="M11.3029 30.7012L11.2672 32.7043L12.9087 33.8693L10.9803 34.4542L10.3722 36.3644L9.21539 34.7232L7.198 34.7389L8.41225 33.1392L7.77359 31.2388L9.68002 31.8912L11.3029 30.7012Z" fill="white"/>
        <path d="M24.7858 42.8289L18.6207 29.4652L27.6396 24.9546L33.8012 38.3118L28.2631 38.0506L24.7858 42.8289Z" fill="#E84144"/>
        <path d="M33.636 38.3948L27.5577 25.2024L18.87 29.547L24.9517 42.7459L24.6201 42.9121L18.3711 29.3834L27.7224 24.707L33.9677 38.229L33.636 38.3948Z" fill="white"/>
        <path d="M24.6865 30.7017L24.7222 32.7048L23.0807 33.8698L25.0102 34.4552L25.6183 36.3653L26.7751 34.7241L28.7925 34.7399L27.5782 33.1402L28.2169 31.2398L26.3104 31.8922L24.6865 30.7017Z" fill="white"/>
        <path d="M20.7466 30.0333C27.5468 28.525 31.8281 21.828 30.3092 15.0751C28.7903 8.32221 22.0463 4.07066 15.2461 5.57899C8.44589 7.08732 4.16453 13.7843 5.68343 20.5372C7.20233 27.2901 13.9463 31.5416 20.7466 30.0333Z" fill="#E84144"/>
        <path d="M17.9757 30.4965C14.6246 30.4941 11.4084 29.1855 9.01909 26.8522C6.62976 24.519 5.25825 21.3476 5.19965 18.0204C5.14105 14.6931 6.40005 11.476 8.70577 9.06125C11.0115 6.64645 14.1796 5.22697 17.5286 5.1082C20.8775 4.98943 24.1395 6.18086 26.6128 8.42616C29.0862 10.6715 30.5731 13.7912 30.7536 17.1141C30.9342 20.437 29.794 23.6975 27.5784 26.194C25.3628 28.6906 22.2488 30.2237 18.9064 30.4635C18.5954 30.4857 18.2851 30.4967 17.9757 30.4965ZM18.0143 5.43941C17.7127 5.43941 17.4103 5.45017 17.107 5.47169C15.4758 5.58747 13.8835 6.02117 12.4211 6.74803C10.9587 7.47489 9.65475 8.48067 8.58375 9.70795C6.42077 12.1866 5.33791 15.4169 5.57338 18.6883C5.80884 21.9598 7.34336 25.0044 9.83934 27.1523C12.3353 29.3002 15.5883 30.3755 18.8827 30.1417C22.0986 29.9132 25.1 28.4551 27.2554 26.074C29.4109 23.693 30.5524 20.5746 30.4399 17.3748C30.3275 14.1751 28.9697 11.1434 26.6523 8.91738C24.3349 6.6914 21.2384 5.44465 18.0143 5.43941Z" fill="white"/>
        <path d="M16.9011 14.8105L14.4744 21.9492H12.824L10.4021 14.8105H11.9304L13.2732 19.0586C13.296 19.1302 13.3334 19.2653 13.3855 19.4639C13.4376 19.6592 13.4897 19.8675 13.5417 20.0889C13.5971 20.307 13.6345 20.4876 13.654 20.6309C13.6736 20.4876 13.7078 20.307 13.7566 20.0889C13.8087 19.8708 13.8591 19.6641 13.908 19.4688C13.96 19.2702 13.9975 19.1335 14.0203 19.0586L15.3728 14.8105H16.9011ZM17.2044 21.9492V14.8105H18.7181V21.9492H17.2044ZM22.1953 14.8105C23.1165 14.8105 23.7887 15.0091 24.2119 15.4062C24.635 15.8001 24.8466 16.3438 24.8466 17.0371C24.8466 17.3496 24.7994 17.6491 24.705 17.9355C24.6106 18.2188 24.456 18.471 24.2412 18.6924C24.0296 18.9137 23.7464 19.0895 23.3915 19.2197C23.0367 19.3467 22.5989 19.4102 22.0781 19.4102H21.4287V21.9492H19.915V14.8105H22.1953ZM22.1171 16.0508H21.4287V18.1699H21.9267C22.2099 18.1699 22.4557 18.1325 22.664 18.0576C22.8723 17.9827 23.0335 17.8656 23.1474 17.7061C23.2613 17.5465 23.3183 17.3415 23.3183 17.0908C23.3183 16.7393 23.2206 16.4788 23.0253 16.3096C22.83 16.137 22.5273 16.0508 22.1171 16.0508Z" fill="white"/>
    </g>
    <defs>
        <clipPath id="clip0_161_1530">
            <rect width="36" height="42.912" fill="white"/>
        </clipPath>
    </defs>
</svg>
