<svg width="41" height="49" viewBox="0 0 41 49" fill="none" xmlns="http://www.w3.org/2000/svg">
    <g clip-path="url(#clip0_46_79)">
        <path d="M39.1705 23.0136C40.0279 22.3384 40.9996 21.5724 41.0002 20.422C41.0008 19.2715 40.0296 18.5041 39.1708 17.8262C38.9381 17.6425 38.23 17.0835 38.1876 16.9172C38.1517 16.7345 38.6091 15.9158 38.7627 15.6401C39.2863 14.7053 39.8795 13.6446 39.4481 12.6078C39.0102 11.5547 37.8255 11.2199 36.7758 10.9231C36.4852 10.8399 35.6011 10.5905 35.4992 10.4472C35.3988 10.2939 35.5065 9.37076 35.5421 9.06729C35.6663 7.99834 35.8071 6.78638 35.0043 5.98653C34.2015 5.18669 32.9843 5.32554 31.9014 5.44887C31.5986 5.48323 30.6766 5.58744 30.5288 5.49211C30.3802 5.38679 30.1291 4.50242 30.0462 4.21114C29.75 3.17046 29.4146 1.99092 28.3582 1.55442C27.3174 1.12457 26.2515 1.71322 25.3107 2.2337C24.5836 2.63584 24.1574 2.82596 24.0364 2.80656C23.861 2.76222 23.2993 2.05522 23.1144 1.82241C22.4361 0.969081 21.667 0.00128695 20.5112 0.00073266C19.3554 0.000178368 18.5855 0.966863 17.9063 1.81992C17.7212 2.05244 17.1589 2.75917 16.9902 2.80158C16.8084 2.83345 15.9934 2.38585 15.7098 2.22899C14.77 1.70768 13.7056 1.1168 12.6634 1.54638C11.6056 1.98205 11.2699 3.16103 10.9721 4.20338C10.8886 4.49355 10.638 5.37709 10.4933 5.47825C10.3402 5.57747 9.41408 5.47077 9.10593 5.43557C8.0323 5.31224 6.81558 5.17256 6.01279 5.97129C5.21 6.77003 5.34862 7.98198 5.47194 9.05177C5.50673 9.35663 5.61307 10.279 5.51592 10.427C5.4107 10.575 4.52245 10.8252 4.22961 10.9075C3.18437 11.2024 1.99967 11.5364 1.56153 12.5879C1.12868 13.625 1.72075 14.6856 2.2449 15.6246C2.39522 15.8945 2.85368 16.7157 2.81916 16.8911C2.7749 17.0652 2.06759 17.6228 1.8307 17.809C0.973353 18.4844 0.00159456 19.2502 0.00103784 20.4009C0.000481116 21.5516 0.971125 22.3179 1.82792 22.9944C2.06146 23.1787 2.77128 23.7389 2.81359 23.9054C2.85006 24.0886 2.39076 24.9095 2.23878 25.1817C1.7149 26.117 1.12172 27.1771 1.55318 28.2148C1.99132 29.2679 3.17546 29.6027 4.22071 29.8984C4.51271 29.9816 5.40012 30.231 5.50283 30.3754C5.60249 30.5275 5.4956 31.4502 5.45997 31.7556C5.33582 32.8248 5.19497 34.0368 5.99804 34.8363C6.80111 35.6359 8.01782 35.4976 9.09202 35.3751C9.39682 35.3399 10.3232 35.2338 10.4732 35.3308C10.6216 35.4358 10.873 36.3188 10.9559 36.6109C11.2518 37.6516 11.5872 38.8314 12.6439 39.2682C13.6864 39.6997 14.7511 39.1097 15.7042 38.582C15.9723 38.4334 16.7878 37.9828 16.9657 38.016C17.1414 38.0604 17.7028 38.7677 17.8879 39.0002C18.566 39.8538 19.3354 40.821 20.4909 40.8216C21.6464 40.8221 22.4166 39.8557 23.0958 39.0027C23.2809 38.7704 23.8432 38.0637 24.0105 38.0219C24.1947 37.9833 25.0217 38.4434 25.2909 38.5939C26.2304 39.1152 27.2951 39.7064 28.3381 39.2762C29.3959 38.8403 29.7316 37.6613 30.0292 36.6189C30.1127 36.3288 30.3632 35.4455 30.5077 35.3441C30.6619 35.244 31.5894 35.3513 31.8942 35.3868C32.967 35.5109 34.1837 35.6517 34.9882 34.8513C35.7926 34.0509 35.6523 32.8403 35.5287 31.7683C35.494 31.4654 35.3896 30.5428 35.4845 30.3956C35.5908 30.2468 36.4788 29.9974 36.7714 29.9151C37.8166 29.6205 39.0007 29.2862 39.4397 28.2342C39.8723 27.1976 39.2802 26.137 38.7552 25.1964C38.6049 24.9267 38.147 24.1066 38.1818 23.9315C38.2261 23.7563 38.937 23.197 39.1705 23.0136ZM35.6529 20.3482C35.6514 23.3321 34.7613 26.2485 33.095 28.7287C31.4288 31.2089 29.0612 33.1414 26.2919 34.2819C23.5225 35.4225 20.4756 35.7197 17.5365 35.1361C14.5975 34.5526 11.8982 33.1144 9.78008 31.0034C7.66197 28.8924 6.22014 26.2035 5.63692 23.2767C5.05371 20.3499 5.3553 17.3166 6.50355 14.5604C7.6518 11.8042 9.59515 9.44898 12.0878 7.79246C14.5805 6.13594 17.5106 5.25256 20.5076 5.25404C24.5248 5.26072 28.3754 6.85354 31.2146 9.68311C34.0539 12.5127 35.65 16.348 35.6529 20.3477V20.3482Z" fill="white"/>
        <path d="M12.76 48.9053L19.7814 33.6456L9.50991 28.4951L2.4916 43.7473L8.79897 43.4491L12.76 48.9053Z" fill="white"/>
        <path d="M2.67922 43.8421L9.60204 28.7778L19.4964 33.7387L12.5699 48.8102L12.9477 49.0001L20.0645 33.5519L9.41554 28.2122L2.3026 43.6525L2.67922 43.8421Z" fill="black"/>
        <path d="M12.8728 35.0574L12.8321 37.3447L14.7016 38.675L12.5053 39.3429L11.8128 41.524L10.4953 39.65L8.19772 39.668L9.58061 37.8413L8.85325 35.6713L11.0245 36.4162L12.8728 35.0574Z" fill="black"/>
        <path d="M28.2283 48.9053L21.2069 33.6456L31.4784 28.4951L38.4959 43.7473L32.1885 43.4491L28.2283 48.9053Z" fill="white"/>
        <path d="M38.3077 43.8421L31.3851 28.7781L21.4908 33.739L28.4173 48.8105L28.0395 49.0003L20.9227 33.5522L31.5728 28.2124L38.6854 43.6528L38.3077 43.8421Z" fill="black"/>
        <path d="M28.1152 35.0574L28.1559 37.3447L26.2864 38.675L28.4838 39.3434L29.1764 41.5246L30.4938 39.6505L32.7914 39.6685L31.4085 37.8419L32.1359 35.6718L29.9647 36.4168L28.1152 35.0574Z" fill="black"/>
        <path d="M23.628 34.2944C31.3727 32.5721 36.2487 24.925 34.5189 17.2141C32.789 9.50314 25.1083 4.64841 17.3636 6.37073C9.61893 8.09304 4.74293 15.7402 6.4728 23.4511C8.20266 31.162 15.8833 36.0168 23.628 34.2944Z" fill="white"/>
        <path d="M20.4723 34.823C16.6558 34.8202 12.9929 33.3259 10.2717 30.6616C7.55056 27.9974 5.98856 24.376 5.92182 20.5768C5.85509 16.7775 7.28895 13.104 9.9149 10.3466C12.5409 7.58923 16.149 5.96836 19.9631 5.83273C23.7771 5.69711 27.4922 7.05758 30.3091 9.62143C33.1259 12.1853 34.8193 15.7476 35.025 19.5419C35.2306 23.3362 33.9321 27.0593 31.4087 29.9101C28.8854 32.7608 25.3389 34.5114 21.5323 34.7853C21.178 34.8106 20.8247 34.8231 20.4723 34.823ZM20.5163 6.21093C20.1728 6.21093 19.8284 6.22323 19.483 6.2478C17.6252 6.38001 15.8118 6.87523 14.1463 7.70521C12.4807 8.53519 10.9957 9.68367 9.77594 11.0851C7.31255 13.9153 6.07928 17.6039 6.34746 21.3395C6.61563 25.0751 8.36327 28.5516 11.2059 31.0042C14.0486 33.4569 17.7534 34.6848 21.5053 34.4178C25.1679 34.1568 28.5861 32.4918 31.0409 29.773C33.4957 27.0542 34.7958 23.4934 34.6677 19.8397C34.5396 16.186 32.9933 12.7241 30.354 10.1823C27.7147 7.64055 24.1882 6.21692 20.5163 6.21093Z" fill="black"/>
        <path d="M19.2426 16.4336L16.3305 25H14.35L11.4438 16.4336H13.2777L14.8891 21.5312C14.9164 21.6172 14.9613 21.7793 15.0238 22.0176C15.0863 22.252 15.1488 22.502 15.2113 22.7676C15.2777 23.0293 15.3227 23.2461 15.3461 23.418C15.3695 23.2461 15.4105 23.0293 15.4691 22.7676C15.5316 22.5059 15.5922 22.2578 15.6508 22.0234C15.7133 21.7852 15.7582 21.6211 15.7855 21.5312L17.4086 16.4336H19.2426ZM19.7266 25V16.4336H21.543V25H19.7266ZM25.8355 16.4336C26.941 16.4336 27.7477 16.6719 28.2555 17.1484C28.7633 17.6211 29.0172 18.2734 29.0172 19.1055C29.0172 19.4805 28.9605 19.8398 28.8473 20.1836C28.734 20.5234 28.5484 20.8262 28.2906 21.0918C28.0367 21.3574 27.6969 21.5684 27.2711 21.7246C26.8453 21.877 26.3199 21.9531 25.6949 21.9531H24.9156V25H23.0992V16.4336H25.8355ZM25.7418 17.9219H24.9156V20.4648H25.5133C25.8531 20.4648 26.148 20.4199 26.398 20.3301C26.648 20.2402 26.8414 20.0996 26.9781 19.9082C27.1148 19.7168 27.1832 19.4707 27.1832 19.1699C27.1832 18.748 27.066 18.4355 26.8316 18.2324C26.5973 18.0254 26.234 17.9219 25.7418 17.9219Z" fill="#1E1E1E"/>
    </g>
    <defs>
        <clipPath id="clip0_46_79">
            <rect width="41" height="49" fill="white"/>
        </clipPath>
    </defs>
</svg>
