<svg width="22" height="22" viewBox="0 0 22 22" fill="none" xmlns="http://www.w3.org/2000/svg">
    <path d="M20.7468 10.5795H19.8621V7.41517C19.8621 6.35851 19.0024 5.49852 17.9455 5.49852H17.1475L13.0689 1.10658C12.9432 0.970911 12.7065 0.970578 12.5802 1.10658L10.4199 3.43421L8.26024 1.10658C8.22907 1.07299 8.1913 1.04619 8.14931 1.02785C8.10731 1.00951 8.06198 1.00003 8.01615 1C7.97033 0.999969 7.92499 1.00939 7.88296 1.02767C7.84094 1.04595 7.80314 1.0727 7.77192 1.10624L3.69297 5.49886H2.91998C1.86132 5.49886 1 6.35851 1 7.4155V19.08C1.00062 19.589 1.2031 20.077 1.56303 20.437C1.92296 20.7969 2.41096 20.9994 2.91998 21H17.9455C19.0024 21 19.8621 20.1387 19.8621 19.08V15.9177H20.7468C20.8352 15.9177 20.9199 15.8826 20.9825 15.8201C21.045 15.7576 21.0801 15.6728 21.0801 15.5844V10.9128C21.0801 10.8244 21.045 10.7396 20.9825 10.6771C20.9199 10.6146 20.8352 10.5795 20.7468 10.5795ZM10.8749 3.92421L12.8249 1.82323L16.2378 5.49852H12.3352L12.1899 5.34186L10.8749 3.92421ZM8.01591 1.82323L10.8259 4.85153L11.4259 5.49819H4.60296L8.01591 1.82323ZM20.4134 15.2511H15.4098C14.3058 15.2511 13.4072 14.3527 13.4072 13.2484C13.4072 12.1441 14.3055 11.2461 15.4098 11.2461H20.4131L20.4134 15.2511Z" fill="#E84144"/>
    <path d="M19.1954 10.5798V7.4155C19.195 7.08412 19.0632 6.76644 18.8288 6.53211C18.5945 6.29779 18.2768 6.16596 17.9455 6.16551H2.92031C2.58849 6.16551 2.2702 6.2971 2.03526 6.53142C1.80031 6.76575 1.66787 7.08368 1.66699 7.4155V19.08C1.66743 19.4123 1.79962 19.7308 2.03457 19.9658C2.26951 20.2007 2.58804 20.3329 2.92031 20.3333H17.9455C18.2773 20.3325 18.5952 20.2 18.8295 19.9651C19.0639 19.7301 19.1954 19.4118 19.1954 19.08V15.9181H15.4102C13.9385 15.9181 12.7409 14.7204 12.7409 13.2488M20.7468 10.5795H19.8621V7.41517C19.8621 6.35851 19.0024 5.49852 17.9455 5.49852H17.1475L13.0689 1.10658C12.9432 0.970911 12.7065 0.970578 12.5802 1.10658L10.4199 3.43421L8.26024 1.10658C8.22907 1.07299 8.1913 1.04619 8.14931 1.02785C8.10731 1.00951 8.06198 1.00003 8.01615 1C7.97033 0.999969 7.92499 1.00939 7.88296 1.02767C7.84094 1.04595 7.80314 1.0727 7.77192 1.10624L3.69297 5.49886H2.91998C1.86132 5.49886 1 6.35851 1 7.4155V19.08C1.00062 19.589 1.2031 20.077 1.56303 20.437C1.92296 20.7969 2.41096 20.9994 2.91998 21H17.9455C19.0024 21 19.8621 20.1387 19.8621 19.08V15.9177H20.7468C20.8352 15.9177 20.9199 15.8826 20.9825 15.8201C21.045 15.7576 21.0801 15.6728 21.0801 15.5844V10.9128C21.0801 10.8244 21.045 10.7396 20.9825 10.6771C20.9199 10.6146 20.8352 10.5795 20.7468 10.5795ZM10.8749 3.92421L12.8249 1.82323L16.2378 5.49852H12.3352L12.1899 5.34186L10.8749 3.92421ZM8.01591 1.82323L10.8259 4.85153L11.4259 5.49819H4.60296L8.01591 1.82323ZM20.4134 15.2511H15.4098C14.3058 15.2511 13.4072 14.3527 13.4072 13.2484C13.4072 12.1441 14.3055 11.2461 15.4098 11.2461H20.4131L20.4134 15.2511Z" stroke="#E84144" stroke-width="0.4"/>
    <path d="M15.6641 12.0544C15.0051 12.0544 14.4691 12.5904 14.4691 13.2494C14.4691 13.9084 15.0051 14.4441 15.6641 14.4441C16.3231 14.4441 16.8591 13.9081 16.8591 13.2494C16.8591 12.5908 16.3231 12.0544 15.6641 12.0544ZM15.6641 13.7774C15.3728 13.7774 15.1358 13.5404 15.1358 13.2494C15.1358 12.9584 15.3728 12.7211 15.6641 12.7211C15.9554 12.7211 16.1924 12.9581 16.1924 13.2494C16.1924 13.5408 15.9554 13.7774 15.6641 13.7774Z" fill="#E84144" stroke="#E84144" stroke-width="0.4"/>
</svg>
